M48
; DRILL file {KiCad 8.0.1-8.0.1-1~ubuntu22.04.1} date 2024-04-27T07:34:54-0500
; FORMAT={-:-/ absolute / inch / decimal}
; #@! TF.CreationDate,2024-04-27T07:34:54-05:00
; #@! TF.GenerationSoftware,Kicad,Pcbnew,8.0.1-8.0.1-1~ubuntu22.04.1
; #@! TF.FileFunction,NonPlated,1,4,NPTH
FMAT,2
INCH
; #@! TA.AperFunction,NonPlated,NPTH,ComponentDrill
T1C0.0236
; #@! TA.AperFunction,NonPlated,NPTH,ComponentDrill
T2C0.0689
; #@! TA.AperFunction,NonPlated,NPTH,ComponentDrill
T3C0.1181
; #@! TA.AperFunction,NonPlated,NPTH,ComponentDrill
T4C0.1575
%
G90
G05
T1
X6.6768Y-1.2835
T2
X3.7199Y-3.5276
X3.7199Y-4.2835
X4.1199Y-3.5276
X4.1199Y-4.2835
X4.4758Y-3.5276
X4.4758Y-4.2835
X4.8758Y-3.5276
X4.8758Y-4.2835
X5.2317Y-3.5276
X5.2317Y-4.2835
X5.6317Y-3.5276
X5.6317Y-4.2835
X5.9876Y-3.5276
X5.9876Y-4.2835
X6.3876Y-3.5276
X6.3876Y-4.2835
X6.7435Y-3.5276
X6.7435Y-4.2835
X7.1435Y-3.5276
X7.1435Y-4.2835
X7.4994Y-3.5276
X7.4994Y-4.2835
X7.8994Y-3.5276
X7.8994Y-4.2835
X8.2553Y-3.5276
X8.2553Y-4.2835
X8.6553Y-3.5276
X8.6553Y-4.2835
X9.0112Y-3.5276
X9.0112Y-4.2835
X9.4112Y-3.5276
X9.4112Y-4.2835
T3
X3.4055Y-1.2087
X3.4055Y-4.7992
X9.7283Y-1.2087
X9.7283Y-4.7992
T4
X3.9199Y-3.5276
X3.9199Y-4.2835
X4.6758Y-3.5276
X4.6758Y-4.2835
X5.4317Y-3.5276
X5.4317Y-4.2835
X6.1876Y-3.5276
X6.1876Y-4.2835
X6.9435Y-3.5276
X6.9435Y-4.2835
X7.6994Y-3.5276
X7.6994Y-4.2835
X8.4553Y-3.5276
X8.4553Y-4.2835
X9.2112Y-3.5276
X9.2112Y-4.2835
T1
G00X6.4561Y-1.2835
M15
G01X6.4423Y-1.2835
M16
G05
M30
