%TF.GenerationSoftware,KiCad,Pcbnew,8.0.1-8.0.1-1~ubuntu22.04.1*%
%TF.CreationDate,2024-04-27T07:34:54-05:00*%
%TF.ProjectId,Universal Control Box,556e6976-6572-4736-916c-20436f6e7472,rev?*%
%TF.SameCoordinates,Original*%
%TF.FileFunction,Other,Comment*%
%FSLAX46Y46*%
G04 Gerber Fmt 4.6, Leading zero omitted, Abs format (unit mm)*
G04 Created by KiCad (PCBNEW 8.0.1-8.0.1-1~ubuntu22.04.1) date 2024-04-27 07:34:54*
%MOMM*%
%LPD*%
G01*
G04 APERTURE LIST*
%ADD10C,0.100000*%
%ADD11C,0.150000*%
G04 APERTURE END LIST*
D10*
X122476109Y-24513095D02*
X122476109Y-24751190D01*
X122476109Y-24751190D02*
X122714204Y-24774999D01*
X122714204Y-24774999D02*
X122690395Y-24751190D01*
X122690395Y-24751190D02*
X122666585Y-24703571D01*
X122666585Y-24703571D02*
X122666585Y-24584523D01*
X122666585Y-24584523D02*
X122690395Y-24536904D01*
X122690395Y-24536904D02*
X122714204Y-24513095D01*
X122714204Y-24513095D02*
X122761823Y-24489285D01*
X122761823Y-24489285D02*
X122880871Y-24489285D01*
X122880871Y-24489285D02*
X122928490Y-24513095D01*
X122928490Y-24513095D02*
X122952300Y-24536904D01*
X122952300Y-24536904D02*
X122976109Y-24584523D01*
X122976109Y-24584523D02*
X122976109Y-24703571D01*
X122976109Y-24703571D02*
X122952300Y-24751190D01*
X122952300Y-24751190D02*
X122928490Y-24774999D01*
X122976109Y-23894048D02*
X122642776Y-23894048D01*
X122690395Y-23894048D02*
X122666585Y-23870238D01*
X122666585Y-23870238D02*
X122642776Y-23822619D01*
X122642776Y-23822619D02*
X122642776Y-23751191D01*
X122642776Y-23751191D02*
X122666585Y-23703572D01*
X122666585Y-23703572D02*
X122714204Y-23679762D01*
X122714204Y-23679762D02*
X122976109Y-23679762D01*
X122714204Y-23679762D02*
X122666585Y-23655953D01*
X122666585Y-23655953D02*
X122642776Y-23608334D01*
X122642776Y-23608334D02*
X122642776Y-23536905D01*
X122642776Y-23536905D02*
X122666585Y-23489286D01*
X122666585Y-23489286D02*
X122714204Y-23465476D01*
X122714204Y-23465476D02*
X122976109Y-23465476D01*
X122976109Y-23227381D02*
X122642776Y-23227381D01*
X122690395Y-23227381D02*
X122666585Y-23203571D01*
X122666585Y-23203571D02*
X122642776Y-23155952D01*
X122642776Y-23155952D02*
X122642776Y-23084524D01*
X122642776Y-23084524D02*
X122666585Y-23036905D01*
X122666585Y-23036905D02*
X122714204Y-23013095D01*
X122714204Y-23013095D02*
X122976109Y-23013095D01*
X122714204Y-23013095D02*
X122666585Y-22989286D01*
X122666585Y-22989286D02*
X122642776Y-22941667D01*
X122642776Y-22941667D02*
X122642776Y-22870238D01*
X122642776Y-22870238D02*
X122666585Y-22822619D01*
X122666585Y-22822619D02*
X122714204Y-22798809D01*
X122714204Y-22798809D02*
X122976109Y-22798809D01*
X126011904Y-28201109D02*
X125773809Y-28201109D01*
X125773809Y-28201109D02*
X125750000Y-28439204D01*
X125750000Y-28439204D02*
X125773809Y-28415395D01*
X125773809Y-28415395D02*
X125821428Y-28391585D01*
X125821428Y-28391585D02*
X125940476Y-28391585D01*
X125940476Y-28391585D02*
X125988095Y-28415395D01*
X125988095Y-28415395D02*
X126011904Y-28439204D01*
X126011904Y-28439204D02*
X126035714Y-28486823D01*
X126035714Y-28486823D02*
X126035714Y-28605871D01*
X126035714Y-28605871D02*
X126011904Y-28653490D01*
X126011904Y-28653490D02*
X125988095Y-28677300D01*
X125988095Y-28677300D02*
X125940476Y-28701109D01*
X125940476Y-28701109D02*
X125821428Y-28701109D01*
X125821428Y-28701109D02*
X125773809Y-28677300D01*
X125773809Y-28677300D02*
X125750000Y-28653490D01*
X126630951Y-28701109D02*
X126630951Y-28367776D01*
X126630951Y-28415395D02*
X126654761Y-28391585D01*
X126654761Y-28391585D02*
X126702380Y-28367776D01*
X126702380Y-28367776D02*
X126773808Y-28367776D01*
X126773808Y-28367776D02*
X126821427Y-28391585D01*
X126821427Y-28391585D02*
X126845237Y-28439204D01*
X126845237Y-28439204D02*
X126845237Y-28701109D01*
X126845237Y-28439204D02*
X126869046Y-28391585D01*
X126869046Y-28391585D02*
X126916665Y-28367776D01*
X126916665Y-28367776D02*
X126988094Y-28367776D01*
X126988094Y-28367776D02*
X127035713Y-28391585D01*
X127035713Y-28391585D02*
X127059523Y-28439204D01*
X127059523Y-28439204D02*
X127059523Y-28701109D01*
X127297618Y-28701109D02*
X127297618Y-28367776D01*
X127297618Y-28415395D02*
X127321428Y-28391585D01*
X127321428Y-28391585D02*
X127369047Y-28367776D01*
X127369047Y-28367776D02*
X127440475Y-28367776D01*
X127440475Y-28367776D02*
X127488094Y-28391585D01*
X127488094Y-28391585D02*
X127511904Y-28439204D01*
X127511904Y-28439204D02*
X127511904Y-28701109D01*
X127511904Y-28439204D02*
X127535713Y-28391585D01*
X127535713Y-28391585D02*
X127583332Y-28367776D01*
X127583332Y-28367776D02*
X127654761Y-28367776D01*
X127654761Y-28367776D02*
X127702380Y-28391585D01*
X127702380Y-28391585D02*
X127726190Y-28439204D01*
X127726190Y-28439204D02*
X127726190Y-28701109D01*
D11*
X112188095Y-30019104D02*
X112664285Y-30019104D01*
X112092857Y-30304819D02*
X112426190Y-29304819D01*
X112426190Y-29304819D02*
X112759523Y-30304819D01*
X113092857Y-29638152D02*
X113092857Y-30304819D01*
X113092857Y-29733390D02*
X113140476Y-29685771D01*
X113140476Y-29685771D02*
X113235714Y-29638152D01*
X113235714Y-29638152D02*
X113378571Y-29638152D01*
X113378571Y-29638152D02*
X113473809Y-29685771D01*
X113473809Y-29685771D02*
X113521428Y-29781009D01*
X113521428Y-29781009D02*
X113521428Y-30304819D01*
X113854762Y-29638152D02*
X114235714Y-29638152D01*
X113997619Y-29304819D02*
X113997619Y-30161961D01*
X113997619Y-30161961D02*
X114045238Y-30257200D01*
X114045238Y-30257200D02*
X114140476Y-30304819D01*
X114140476Y-30304819D02*
X114235714Y-30304819D01*
X114950000Y-30257200D02*
X114854762Y-30304819D01*
X114854762Y-30304819D02*
X114664286Y-30304819D01*
X114664286Y-30304819D02*
X114569048Y-30257200D01*
X114569048Y-30257200D02*
X114521429Y-30161961D01*
X114521429Y-30161961D02*
X114521429Y-29781009D01*
X114521429Y-29781009D02*
X114569048Y-29685771D01*
X114569048Y-29685771D02*
X114664286Y-29638152D01*
X114664286Y-29638152D02*
X114854762Y-29638152D01*
X114854762Y-29638152D02*
X114950000Y-29685771D01*
X114950000Y-29685771D02*
X114997619Y-29781009D01*
X114997619Y-29781009D02*
X114997619Y-29876247D01*
X114997619Y-29876247D02*
X114521429Y-29971485D01*
X115426191Y-29638152D02*
X115426191Y-30304819D01*
X115426191Y-29733390D02*
X115473810Y-29685771D01*
X115473810Y-29685771D02*
X115569048Y-29638152D01*
X115569048Y-29638152D02*
X115711905Y-29638152D01*
X115711905Y-29638152D02*
X115807143Y-29685771D01*
X115807143Y-29685771D02*
X115854762Y-29781009D01*
X115854762Y-29781009D02*
X115854762Y-30304819D01*
X116330953Y-29638152D02*
X116330953Y-30304819D01*
X116330953Y-29733390D02*
X116378572Y-29685771D01*
X116378572Y-29685771D02*
X116473810Y-29638152D01*
X116473810Y-29638152D02*
X116616667Y-29638152D01*
X116616667Y-29638152D02*
X116711905Y-29685771D01*
X116711905Y-29685771D02*
X116759524Y-29781009D01*
X116759524Y-29781009D02*
X116759524Y-30304819D01*
X117664286Y-30304819D02*
X117664286Y-29781009D01*
X117664286Y-29781009D02*
X117616667Y-29685771D01*
X117616667Y-29685771D02*
X117521429Y-29638152D01*
X117521429Y-29638152D02*
X117330953Y-29638152D01*
X117330953Y-29638152D02*
X117235715Y-29685771D01*
X117664286Y-30257200D02*
X117569048Y-30304819D01*
X117569048Y-30304819D02*
X117330953Y-30304819D01*
X117330953Y-30304819D02*
X117235715Y-30257200D01*
X117235715Y-30257200D02*
X117188096Y-30161961D01*
X117188096Y-30161961D02*
X117188096Y-30066723D01*
X117188096Y-30066723D02*
X117235715Y-29971485D01*
X117235715Y-29971485D02*
X117330953Y-29923866D01*
X117330953Y-29923866D02*
X117569048Y-29923866D01*
X117569048Y-29923866D02*
X117664286Y-29876247D01*
D10*
X103011904Y-28201109D02*
X102773809Y-28201109D01*
X102773809Y-28201109D02*
X102750000Y-28439204D01*
X102750000Y-28439204D02*
X102773809Y-28415395D01*
X102773809Y-28415395D02*
X102821428Y-28391585D01*
X102821428Y-28391585D02*
X102940476Y-28391585D01*
X102940476Y-28391585D02*
X102988095Y-28415395D01*
X102988095Y-28415395D02*
X103011904Y-28439204D01*
X103011904Y-28439204D02*
X103035714Y-28486823D01*
X103035714Y-28486823D02*
X103035714Y-28605871D01*
X103035714Y-28605871D02*
X103011904Y-28653490D01*
X103011904Y-28653490D02*
X102988095Y-28677300D01*
X102988095Y-28677300D02*
X102940476Y-28701109D01*
X102940476Y-28701109D02*
X102821428Y-28701109D01*
X102821428Y-28701109D02*
X102773809Y-28677300D01*
X102773809Y-28677300D02*
X102750000Y-28653490D01*
X103630951Y-28701109D02*
X103630951Y-28367776D01*
X103630951Y-28415395D02*
X103654761Y-28391585D01*
X103654761Y-28391585D02*
X103702380Y-28367776D01*
X103702380Y-28367776D02*
X103773808Y-28367776D01*
X103773808Y-28367776D02*
X103821427Y-28391585D01*
X103821427Y-28391585D02*
X103845237Y-28439204D01*
X103845237Y-28439204D02*
X103845237Y-28701109D01*
X103845237Y-28439204D02*
X103869046Y-28391585D01*
X103869046Y-28391585D02*
X103916665Y-28367776D01*
X103916665Y-28367776D02*
X103988094Y-28367776D01*
X103988094Y-28367776D02*
X104035713Y-28391585D01*
X104035713Y-28391585D02*
X104059523Y-28439204D01*
X104059523Y-28439204D02*
X104059523Y-28701109D01*
X104297618Y-28701109D02*
X104297618Y-28367776D01*
X104297618Y-28415395D02*
X104321428Y-28391585D01*
X104321428Y-28391585D02*
X104369047Y-28367776D01*
X104369047Y-28367776D02*
X104440475Y-28367776D01*
X104440475Y-28367776D02*
X104488094Y-28391585D01*
X104488094Y-28391585D02*
X104511904Y-28439204D01*
X104511904Y-28439204D02*
X104511904Y-28701109D01*
X104511904Y-28439204D02*
X104535713Y-28391585D01*
X104535713Y-28391585D02*
X104583332Y-28367776D01*
X104583332Y-28367776D02*
X104654761Y-28367776D01*
X104654761Y-28367776D02*
X104702380Y-28391585D01*
X104702380Y-28391585D02*
X104726190Y-28439204D01*
X104726190Y-28439204D02*
X104726190Y-28701109D01*
D11*
X108878571Y-24304819D02*
X108878571Y-23304819D01*
X109449999Y-24304819D02*
X109021428Y-23733390D01*
X109449999Y-23304819D02*
X108878571Y-23876247D01*
X109878571Y-23781009D02*
X110211904Y-23781009D01*
X110354761Y-24304819D02*
X109878571Y-24304819D01*
X109878571Y-24304819D02*
X109878571Y-23304819D01*
X109878571Y-23304819D02*
X110354761Y-23304819D01*
X110783333Y-23781009D02*
X111116666Y-23781009D01*
X111259523Y-24304819D02*
X110783333Y-24304819D01*
X110783333Y-24304819D02*
X110783333Y-23304819D01*
X110783333Y-23304819D02*
X111259523Y-23304819D01*
X111688095Y-24304819D02*
X111688095Y-23304819D01*
X111688095Y-23304819D02*
X112069047Y-23304819D01*
X112069047Y-23304819D02*
X112164285Y-23352438D01*
X112164285Y-23352438D02*
X112211904Y-23400057D01*
X112211904Y-23400057D02*
X112259523Y-23495295D01*
X112259523Y-23495295D02*
X112259523Y-23638152D01*
X112259523Y-23638152D02*
X112211904Y-23733390D01*
X112211904Y-23733390D02*
X112164285Y-23781009D01*
X112164285Y-23781009D02*
X112069047Y-23828628D01*
X112069047Y-23828628D02*
X111688095Y-23828628D01*
X112688095Y-23923866D02*
X113450000Y-23923866D01*
X114116666Y-23304819D02*
X114307142Y-23304819D01*
X114307142Y-23304819D02*
X114402380Y-23352438D01*
X114402380Y-23352438D02*
X114497618Y-23447676D01*
X114497618Y-23447676D02*
X114545237Y-23638152D01*
X114545237Y-23638152D02*
X114545237Y-23971485D01*
X114545237Y-23971485D02*
X114497618Y-24161961D01*
X114497618Y-24161961D02*
X114402380Y-24257200D01*
X114402380Y-24257200D02*
X114307142Y-24304819D01*
X114307142Y-24304819D02*
X114116666Y-24304819D01*
X114116666Y-24304819D02*
X114021428Y-24257200D01*
X114021428Y-24257200D02*
X113926190Y-24161961D01*
X113926190Y-24161961D02*
X113878571Y-23971485D01*
X113878571Y-23971485D02*
X113878571Y-23638152D01*
X113878571Y-23638152D02*
X113926190Y-23447676D01*
X113926190Y-23447676D02*
X114021428Y-23352438D01*
X114021428Y-23352438D02*
X114116666Y-23304819D01*
X114973809Y-23304819D02*
X114973809Y-24114342D01*
X114973809Y-24114342D02*
X115021428Y-24209580D01*
X115021428Y-24209580D02*
X115069047Y-24257200D01*
X115069047Y-24257200D02*
X115164285Y-24304819D01*
X115164285Y-24304819D02*
X115354761Y-24304819D01*
X115354761Y-24304819D02*
X115449999Y-24257200D01*
X115449999Y-24257200D02*
X115497618Y-24209580D01*
X115497618Y-24209580D02*
X115545237Y-24114342D01*
X115545237Y-24114342D02*
X115545237Y-23304819D01*
X115878571Y-23304819D02*
X116449999Y-23304819D01*
X116164285Y-24304819D02*
X116164285Y-23304819D01*
X117450000Y-23304819D02*
X118116666Y-23304819D01*
X118116666Y-23304819D02*
X117450000Y-24304819D01*
X117450000Y-24304819D02*
X118116666Y-24304819D01*
X118688095Y-23304819D02*
X118878571Y-23304819D01*
X118878571Y-23304819D02*
X118973809Y-23352438D01*
X118973809Y-23352438D02*
X119069047Y-23447676D01*
X119069047Y-23447676D02*
X119116666Y-23638152D01*
X119116666Y-23638152D02*
X119116666Y-23971485D01*
X119116666Y-23971485D02*
X119069047Y-24161961D01*
X119069047Y-24161961D02*
X118973809Y-24257200D01*
X118973809Y-24257200D02*
X118878571Y-24304819D01*
X118878571Y-24304819D02*
X118688095Y-24304819D01*
X118688095Y-24304819D02*
X118592857Y-24257200D01*
X118592857Y-24257200D02*
X118497619Y-24161961D01*
X118497619Y-24161961D02*
X118450000Y-23971485D01*
X118450000Y-23971485D02*
X118450000Y-23638152D01*
X118450000Y-23638152D02*
X118497619Y-23447676D01*
X118497619Y-23447676D02*
X118592857Y-23352438D01*
X118592857Y-23352438D02*
X118688095Y-23304819D01*
X119545238Y-24304819D02*
X119545238Y-23304819D01*
X119545238Y-23304819D02*
X120116666Y-24304819D01*
X120116666Y-24304819D02*
X120116666Y-23304819D01*
X120592857Y-23781009D02*
X120926190Y-23781009D01*
X121069047Y-24304819D02*
X120592857Y-24304819D01*
X120592857Y-24304819D02*
X120592857Y-23304819D01*
X120592857Y-23304819D02*
X121069047Y-23304819D01*
D10*
%TO.C,U101*%
X101150000Y-28975000D02*
X101350000Y-28775000D01*
X101150000Y-28975000D02*
X101350000Y-29175000D01*
X101150000Y-28975000D02*
X105750000Y-28975000D01*
X105750000Y-28975000D02*
X105550000Y-28775000D01*
X105750000Y-28975000D02*
X105550000Y-29175000D01*
X123350000Y-22250000D02*
X123150000Y-22450000D01*
X123350000Y-22250000D02*
X123550000Y-22450000D01*
X123350000Y-26850000D02*
X123150000Y-26650000D01*
X123350000Y-26850000D02*
X123350000Y-22250000D01*
X123350000Y-26850000D02*
X123550000Y-26650000D01*
X124150000Y-28975000D02*
X124350000Y-28775000D01*
X124150000Y-28975000D02*
X124350000Y-29175000D01*
X124150000Y-28975000D02*
X128750000Y-28975000D01*
X128750000Y-28975000D02*
X128550000Y-28775000D01*
X128750000Y-28975000D02*
X128550000Y-29175000D01*
D11*
%TO.C,H103*%
X89500000Y-121900000D02*
G75*
G02*
X83500000Y-121900000I-3000000J0D01*
G01*
X83500000Y-121900000D02*
G75*
G02*
X89500000Y-121900000I3000000J0D01*
G01*
%TO.C,H104*%
X250100000Y-121900000D02*
G75*
G02*
X244100000Y-121900000I-3000000J0D01*
G01*
X244100000Y-121900000D02*
G75*
G02*
X250100000Y-121900000I3000000J0D01*
G01*
%TO.C,H101*%
X89500000Y-30700000D02*
G75*
G02*
X83500000Y-30700000I-3000000J0D01*
G01*
X83500000Y-30700000D02*
G75*
G02*
X89500000Y-30700000I3000000J0D01*
G01*
%TO.C,H102*%
X250100000Y-30700000D02*
G75*
G02*
X244100000Y-30700000I-3000000J0D01*
G01*
X244100000Y-30700000D02*
G75*
G02*
X250100000Y-30700000I3000000J0D01*
G01*
%TD*%
M02*
