M48
; DRILL file {KiCad 8.0.1-8.0.1-1~ubuntu22.04.1} date 2024-04-27T07:34:54-0500
; FORMAT={-:-/ absolute / inch / decimal}
; #@! TF.CreationDate,2024-04-27T07:34:54-05:00
; #@! TF.GenerationSoftware,Kicad,Pcbnew,8.0.1-8.0.1-1~ubuntu22.04.1
; #@! TF.FileFunction,Plated,1,4,PTH
FMAT,2
INCH
; #@! TA.AperFunction,Plated,PTH,ComponentDrill
T1C0.0079
; #@! TA.AperFunction,Plated,PTH,ViaDrill
T2C0.0157
; #@! TA.AperFunction,Plated,PTH,ComponentDrill
T3C0.0236
; #@! TA.AperFunction,Plated,PTH,ComponentDrill
T4C0.0394
; #@! TA.AperFunction,Plated,PTH,ComponentDrill
T5C0.0591
; #@! TA.AperFunction,Plated,PTH,ComponentDrill
T6C0.1028
%
G90
G05
T1
X4.4388Y-1.6212
X4.4388Y-1.6812
X4.4688Y-1.5911
X4.4688Y-1.6512
X4.4688Y-1.7112
X4.4988Y-1.6212
X4.4988Y-1.6812
X4.5288Y-1.5911
X4.5288Y-1.6512
X4.5288Y-1.7112
X4.5589Y-1.6212
X4.5589Y-1.6812
T2
X3.7426Y-4.0569
X3.748Y-3.2008
X3.748Y-3.9567
X3.8189Y-3.2707
X3.8189Y-3.3278
X3.8189Y-4.0266
X3.8189Y-4.0837
X3.8858Y-3.3898
X3.8858Y-4.1457
X3.9213Y-3.2008
X3.9213Y-3.9567
X3.9331Y-1.4134
X3.9764Y-2.0197
X3.9764Y-2.1299
X3.9882Y-1.5906
X4.0394Y-3.2992
X4.0394Y-4.0551
X4.0512Y-1.5866
X4.0669Y-1.7622
X4.0709Y-2.0512
X4.0709Y-2.1457
X4.1102Y-1.3583
X4.1142Y-2.0512
X4.1142Y-2.1457
X4.122Y-1.7622
X4.2441Y-1.4606
X4.248Y-1.811
X4.248Y-1.8622
X4.3031Y-2.126
X4.5039Y-3.2008
X4.5039Y-3.9567
X4.5748Y-3.2707
X4.5748Y-4.0266
X4.5758Y-3.3819
X4.5758Y-4.1299
X4.6417Y-3.3898
X4.6417Y-4.1457
X4.6772Y-3.2008
X4.6772Y-3.9567
X4.7008Y-2.1299
X4.7953Y-3.2992
X4.7953Y-4.0551
X4.937Y-1.3622
X4.937Y-1.5118
X4.937Y-1.563
X4.937Y-2.0118
X5.0106Y-1.9122
X5.0118Y-1.8622
X5.2087Y-2.0472
X5.252Y-2.0906
X5.2598Y-3.2008
X5.2598Y-3.9567
X5.3307Y-3.2707
X5.3307Y-4.0266
X5.3317Y-3.3819
X5.3317Y-4.1299
X5.3976Y-3.3898
X5.3976Y-4.1457
X5.4331Y-3.2008
X5.4331Y-3.9567
X5.5512Y-3.2992
X5.5512Y-4.0551
X5.878Y-1.1811
X5.937Y-1.4331
X6.0Y-1.1811
X6.0157Y-3.2008
X6.0157Y-3.9567
X6.0551Y-1.4331
X6.0866Y-3.2707
X6.0866Y-4.0266
X6.0876Y-3.3819
X6.0876Y-4.1299
X6.1142Y-1.1811
X6.1535Y-3.3898
X6.1535Y-4.1457
X6.1693Y-1.4331
X6.189Y-3.2008
X6.189Y-3.9567
X6.3071Y-3.2992
X6.3071Y-4.0551
X6.315Y-1.3898
X6.3268Y-2.0472
X6.3504Y-2.8661
X6.3504Y-3.1102
X6.3701Y-2.0906
X6.378Y-1.3937
X6.378Y-1.4449
X6.3937Y-1.5315
X6.4291Y-1.3937
X6.4291Y-1.4449
X6.4409Y-3.3425
X6.4567Y-2.4134
X6.4606Y-1.5787
X6.4606Y-1.689
X6.5118Y-1.6299
X6.563Y-1.6299
X6.6142Y-1.6299
X6.6654Y-1.5787
X6.6654Y-1.6299
X6.6654Y-1.689
X6.6693Y-2.6102
X6.689Y-3.2992
X6.6969Y-1.3937
X6.6969Y-1.4449
X6.7165Y-1.7126
X6.7323Y-1.8346
X6.7323Y-1.8701
X6.748Y-1.3937
X6.748Y-1.4449
X6.7677Y-1.8346
X6.7677Y-1.8701
X6.7717Y-3.2008
X6.7717Y-3.9567
X6.7795Y-1.7795
X6.7795Y-2.8268
X6.7795Y-2.9055
X6.8031Y-1.8346
X6.8031Y-1.8701
X6.811Y-1.3898
X6.8425Y-3.2707
X6.8425Y-4.0266
X6.8435Y-3.3819
X6.8435Y-4.1339
X6.8661Y-1.1063
X6.9094Y-3.3898
X6.9094Y-4.1457
X6.9449Y-3.2008
X6.9449Y-3.9567
X6.9764Y-2.6102
X7.063Y-3.2992
X7.063Y-4.0551
X7.1575Y-2.7913
X7.2205Y-2.7913
X7.4173Y-2.7913
X7.4803Y-2.7913
X7.5276Y-3.2008
X7.5276Y-3.9567
X7.5984Y-3.2707
X7.5984Y-4.0266
X7.5994Y-3.3819
X7.5994Y-4.1299
X7.6614Y-2.6102
X7.6654Y-3.3898
X7.6654Y-4.1457
X7.7008Y-3.2008
X7.7008Y-3.9567
X7.8189Y-3.2992
X7.8189Y-4.0551
X8.2835Y-3.2008
X8.2835Y-3.9567
X8.3543Y-3.2707
X8.3543Y-4.0266
X8.3553Y-3.3819
X8.3553Y-4.1299
X8.4213Y-3.3898
X8.4213Y-4.1457
X8.4567Y-3.2008
X8.4567Y-3.9567
X8.4921Y-2.6102
X8.5748Y-3.2992
X8.5748Y-4.0551
X8.6732Y-2.7874
X8.7362Y-2.7874
X8.9331Y-2.7874
X8.9961Y-2.7874
X9.0394Y-3.2008
X9.0394Y-3.9567
X9.1102Y-3.2707
X9.1102Y-4.0266
X9.1112Y-3.3819
X9.1112Y-4.1299
X9.1772Y-2.6102
X9.1772Y-3.3898
X9.1772Y-4.1457
X9.2126Y-3.2008
X9.2126Y-3.9567
X9.3307Y-3.2992
X9.3307Y-4.0551
X9.4528Y-4.0551
T4
X3.6535Y-1.9134
X3.6535Y-2.0134
X3.6535Y-2.1134
X3.6535Y-2.2134
X3.6535Y-2.3134
X3.6535Y-2.4134
X3.6535Y-2.5134
X5.2441Y-1.2165
X5.3441Y-1.2165
X5.4441Y-1.2165
X5.5441Y-1.2165
X5.6441Y-1.2165
X5.7441Y-1.2165
X7.2205Y-1.935
X7.2205Y-2.5059
X7.3189Y-2.5059
X7.4173Y-1.935
X7.4173Y-2.5059
X8.7362Y-1.935
X8.7362Y-2.5059
X8.8346Y-2.5059
X8.9331Y-1.935
X8.9331Y-2.5059
T5
X3.8199Y-3.7276
X3.8199Y-4.4835
X4.0699Y-3.6276
X4.0699Y-4.3835
X4.5758Y-3.7276
X4.5758Y-4.4835
X4.8258Y-3.6276
X4.8258Y-4.3835
X5.3317Y-3.7276
X5.3317Y-4.4835
X5.5817Y-3.6276
X5.5817Y-4.3835
X6.0876Y-3.7276
X6.0876Y-4.4835
X6.3376Y-3.6276
X6.3376Y-4.3835
X6.8435Y-3.7276
X6.8435Y-4.4835
X7.0935Y-3.6276
X7.0935Y-4.3835
X7.5994Y-3.7276
X7.5994Y-4.4835
X7.8494Y-3.6276
X7.8494Y-4.3835
X8.3553Y-3.7276
X8.3553Y-4.4835
X8.6053Y-3.6276
X8.6053Y-4.3835
X9.1112Y-3.7276
X9.1112Y-4.4835
X9.3612Y-3.6276
X9.3612Y-4.3835
T6
X7.0945Y-2.2106
X7.5433Y-2.2106
X8.6102Y-2.2106
X9.0591Y-2.2106
T3
G00X6.3927Y-1.1535
M15
G01X6.3927Y-1.122
M16
G05
G00X6.3927Y-1.3278
M15
G01X6.3927Y-1.2844
M16
G05
G00X6.7333Y-1.1535
M15
G01X6.7333Y-1.122
M16
G05
G00X6.7333Y-1.3278
M15
G01X6.7333Y-1.2844
M16
G05
M30
