%TF.GenerationSoftware,KiCad,Pcbnew,8.0.1-8.0.1-1~ubuntu22.04.1*%
%TF.CreationDate,2024-04-27T07:34:54-05:00*%
%TF.ProjectId,Universal Control Box,556e6976-6572-4736-916c-20436f6e7472,rev?*%
%TF.SameCoordinates,Original*%
%TF.FileFunction,Soldermask,Top*%
%TF.FilePolarity,Negative*%
%FSLAX46Y46*%
G04 Gerber Fmt 4.6, Leading zero omitted, Abs format (unit mm)*
G04 Created by KiCad (PCBNEW 8.0.1-8.0.1-1~ubuntu22.04.1) date 2024-04-27 07:34:54*
%MOMM*%
%LPD*%
G01*
G04 APERTURE LIST*
G04 Aperture macros list*
%AMRoundRect*
0 Rectangle with rounded corners*
0 $1 Rounding radius*
0 $2 $3 $4 $5 $6 $7 $8 $9 X,Y pos of 4 corners*
0 Add a 4 corners polygon primitive as box body*
4,1,4,$2,$3,$4,$5,$6,$7,$8,$9,$2,$3,0*
0 Add four circle primitives for the rounded corners*
1,1,$1+$1,$2,$3*
1,1,$1+$1,$4,$5*
1,1,$1+$1,$6,$7*
1,1,$1+$1,$8,$9*
0 Add four rect primitives between the rounded corners*
20,1,$1+$1,$2,$3,$4,$5,0*
20,1,$1+$1,$4,$5,$6,$7,0*
20,1,$1+$1,$6,$7,$8,$9,0*
20,1,$1+$1,$8,$9,$2,$3,0*%
G04 Aperture macros list end*
%ADD10C,1.500000*%
%ADD11C,3.915000*%
%ADD12RoundRect,0.243750X-0.456250X0.243750X-0.456250X-0.243750X0.456250X-0.243750X0.456250X0.243750X0*%
%ADD13RoundRect,0.243750X0.456250X-0.243750X0.456250X0.243750X-0.456250X0.243750X-0.456250X-0.243750X0*%
%ADD14C,1.750000*%
%ADD15C,4.000000*%
%ADD16C,2.200000*%
%ADD17R,0.700000X0.700000*%
%ADD18RoundRect,0.200000X0.275000X-0.200000X0.275000X0.200000X-0.275000X0.200000X-0.275000X-0.200000X0*%
%ADD19RoundRect,0.200000X0.200000X0.275000X-0.200000X0.275000X-0.200000X-0.275000X0.200000X-0.275000X0*%
%ADD20RoundRect,0.225000X0.225000X0.250000X-0.225000X0.250000X-0.225000X-0.250000X0.225000X-0.250000X0*%
%ADD21R,1.500000X0.900000*%
%ADD22R,0.900000X1.500000*%
%ADD23C,0.475000*%
%ADD24R,4.200000X4.200000*%
%ADD25RoundRect,0.200000X-0.275000X0.200000X-0.275000X-0.200000X0.275000X-0.200000X0.275000X0.200000X0*%
%ADD26RoundRect,0.225000X-0.250000X0.225000X-0.250000X-0.225000X0.250000X-0.225000X0.250000X0.225000X0*%
%ADD27RoundRect,0.150000X-0.150000X0.512500X-0.150000X-0.512500X0.150000X-0.512500X0.150000X0.512500X0*%
%ADD28C,3.000000*%
%ADD29RoundRect,0.225000X-0.225000X-0.250000X0.225000X-0.250000X0.225000X0.250000X-0.225000X0.250000X0*%
%ADD30R,1.700000X1.700000*%
%ADD31O,1.700000X1.700000*%
%ADD32R,2.057400X0.431800*%
%ADD33RoundRect,0.225000X0.250000X-0.225000X0.250000X0.225000X-0.250000X0.225000X-0.250000X-0.225000X0*%
%ADD34RoundRect,0.200000X-0.200000X-0.275000X0.200000X-0.275000X0.200000X0.275000X-0.200000X0.275000X0*%
%ADD35C,0.600000*%
%ADD36O,0.950000X0.600000*%
%ADD37R,0.300000X1.400000*%
%ADD38O,1.200000X2.300000*%
%ADD39O,1.200000X2.000000*%
%ADD40RoundRect,0.250000X-1.450000X0.312500X-1.450000X-0.312500X1.450000X-0.312500X1.450000X0.312500X0*%
%ADD41RoundRect,0.218750X-0.256250X0.218750X-0.256250X-0.218750X0.256250X-0.218750X0.256250X0.218750X0*%
G04 APERTURE END LIST*
D10*
%TO.C,U202*%
X221900000Y-63650000D03*
X226900000Y-63650000D03*
X224400000Y-63650000D03*
D11*
X218700000Y-56150000D03*
X230100000Y-56150000D03*
D10*
X221900000Y-49150000D03*
X226900000Y-49150000D03*
%TD*%
%TO.C,U201*%
X183400000Y-63650000D03*
X188400000Y-63650000D03*
X185900000Y-63650000D03*
D11*
X180200000Y-56150000D03*
X191600000Y-56150000D03*
D10*
X183400000Y-49150000D03*
X188400000Y-49150000D03*
%TD*%
D12*
%TO.C,D103*%
X156700000Y-29962500D03*
X156700000Y-31837500D03*
%TD*%
D13*
%TO.C,D102*%
X153800000Y-31837500D03*
X153800000Y-29962500D03*
%TD*%
D12*
%TO.C,D101*%
X150800000Y-29962500D03*
X150800000Y-31837500D03*
%TD*%
D14*
%TO.C,SW306*%
X200645000Y-89600000D03*
D15*
X195565000Y-89600000D03*
D14*
X190485000Y-89600000D03*
D16*
X199375000Y-92140000D03*
X193025000Y-94680000D03*
D17*
X194650000Y-84900000D03*
X196480000Y-84900000D03*
X194650000Y-83800000D03*
X196480000Y-83800000D03*
%TD*%
D14*
%TO.C,SW311*%
X143045000Y-108800000D03*
D15*
X137965000Y-108800000D03*
D14*
X132885000Y-108800000D03*
D16*
X141775000Y-111340000D03*
X135425000Y-113880000D03*
D17*
X137050000Y-104100000D03*
X138880000Y-104100000D03*
X137050000Y-103000000D03*
X138880000Y-103000000D03*
%TD*%
D18*
%TO.C,R204*%
X188400000Y-69550000D03*
X188400000Y-67900000D03*
%TD*%
D19*
%TO.C,R313*%
X174850000Y-100500000D03*
X173200000Y-100500000D03*
%TD*%
D20*
%TO.C,C314*%
X198600000Y-100500000D03*
X197050000Y-100500000D03*
%TD*%
%TO.C,C306*%
X198600000Y-81300000D03*
X197050000Y-81300000D03*
%TD*%
D21*
%TO.C,U101*%
X106200000Y-34600000D03*
X106200000Y-35870000D03*
X106200000Y-37140000D03*
X106200000Y-38410000D03*
X106200000Y-39680000D03*
X106200000Y-40950000D03*
X106200000Y-42220000D03*
X106200000Y-43490000D03*
X106200000Y-44760000D03*
X106200000Y-46030000D03*
X106200000Y-47300000D03*
X106200000Y-48570000D03*
X106200000Y-49840000D03*
X106200000Y-51110000D03*
D22*
X109240000Y-52360000D03*
X110510000Y-52360000D03*
X111780000Y-52360000D03*
X113050000Y-52360000D03*
X114320000Y-52360000D03*
X115590000Y-52360000D03*
X116860000Y-52360000D03*
X118130000Y-52360000D03*
X119400000Y-52360000D03*
X120670000Y-52360000D03*
D21*
X123700000Y-51110000D03*
X123700000Y-49840000D03*
X123700000Y-48570000D03*
X123700000Y-47300000D03*
X123700000Y-46030000D03*
X123700000Y-44760000D03*
X123700000Y-43490000D03*
X123700000Y-42220000D03*
X123700000Y-40950000D03*
X123700000Y-39680000D03*
X123700000Y-38410000D03*
X123700000Y-37140000D03*
X123700000Y-35870000D03*
X123700000Y-34600000D03*
D23*
X112745000Y-41177500D03*
X112745000Y-42702500D03*
X113507500Y-40415000D03*
X113507500Y-41940000D03*
X113507500Y-43465000D03*
X114270000Y-41177500D03*
D24*
X114270000Y-41940000D03*
D23*
X114270000Y-42702500D03*
X115032500Y-40415000D03*
X115032500Y-41940000D03*
X115032500Y-43465000D03*
X115795000Y-41177500D03*
X115795000Y-42702500D03*
%TD*%
D19*
%TO.C,R310*%
X117250000Y-100500000D03*
X115600000Y-100500000D03*
%TD*%
D25*
%TO.C,R102*%
X160400000Y-32400000D03*
X160400000Y-34050000D03*
%TD*%
D14*
%TO.C,SW309*%
X104645000Y-108800000D03*
D15*
X99565000Y-108800000D03*
D14*
X94485000Y-108800000D03*
D16*
X103375000Y-111340000D03*
X97025000Y-113880000D03*
D17*
X98650000Y-104100000D03*
X100480000Y-104100000D03*
X98650000Y-103000000D03*
X100480000Y-103000000D03*
%TD*%
D26*
%TO.C,C102*%
X101300000Y-34350000D03*
X101300000Y-35900000D03*
%TD*%
%TO.C,C201*%
X181800000Y-67900000D03*
X181800000Y-69450000D03*
%TD*%
D25*
%TO.C,R104*%
X150800000Y-33400000D03*
X150800000Y-35050000D03*
%TD*%
D20*
%TO.C,C305*%
X179400000Y-81300000D03*
X177850000Y-81300000D03*
%TD*%
D14*
%TO.C,SW305*%
X181445000Y-89600000D03*
D15*
X176365000Y-89600000D03*
D14*
X171285000Y-89600000D03*
D16*
X180175000Y-92140000D03*
X173825000Y-94680000D03*
D17*
X175450000Y-84900000D03*
X177280000Y-84900000D03*
X175450000Y-83800000D03*
X177280000Y-83800000D03*
%TD*%
D27*
%TO.C,U103*%
X167700000Y-42900000D03*
X166750000Y-42900000D03*
X165800000Y-42900000D03*
X165800000Y-45175000D03*
X167700000Y-45175000D03*
%TD*%
D19*
%TO.C,R312*%
X155650000Y-100500000D03*
X154000000Y-100500000D03*
%TD*%
D14*
%TO.C,SW314*%
X200645000Y-108800000D03*
D15*
X195565000Y-108800000D03*
D14*
X190485000Y-108800000D03*
D16*
X199375000Y-111340000D03*
X193025000Y-113880000D03*
D17*
X194650000Y-104100000D03*
X196480000Y-104100000D03*
X194650000Y-103000000D03*
X196480000Y-103000000D03*
%TD*%
D14*
%TO.C,SW316*%
X239045000Y-108800000D03*
D15*
X233965000Y-108800000D03*
D14*
X228885000Y-108800000D03*
D16*
X237775000Y-111340000D03*
X231425000Y-113880000D03*
D17*
X233050000Y-104100000D03*
X234880000Y-104100000D03*
X233050000Y-103000000D03*
X234880000Y-103000000D03*
%TD*%
D14*
%TO.C,SW301*%
X104645000Y-89600000D03*
D15*
X99565000Y-89600000D03*
D14*
X94485000Y-89600000D03*
D16*
X103375000Y-92140000D03*
X97025000Y-94680000D03*
D17*
X98650000Y-84900000D03*
X100480000Y-84900000D03*
X98650000Y-83800000D03*
X100480000Y-83800000D03*
%TD*%
D28*
%TO.C,H103*%
X86500000Y-121900000D03*
%TD*%
D29*
%TO.C,C104*%
X162350000Y-41400000D03*
X163900000Y-41400000D03*
%TD*%
D18*
%TO.C,R101*%
X101300000Y-39050000D03*
X101300000Y-37400000D03*
%TD*%
D20*
%TO.C,C301*%
X102600000Y-81300000D03*
X101050000Y-81300000D03*
%TD*%
D18*
%TO.C,R105*%
X153800000Y-35050000D03*
X153800000Y-33400000D03*
%TD*%
D19*
%TO.C,R311*%
X136450000Y-100500000D03*
X134800000Y-100500000D03*
%TD*%
D20*
%TO.C,C303*%
X141000000Y-81300000D03*
X139450000Y-81300000D03*
%TD*%
%TO.C,C311*%
X141000000Y-100500000D03*
X139450000Y-100500000D03*
%TD*%
D14*
%TO.C,SW303*%
X143045000Y-89600000D03*
D15*
X137965000Y-89600000D03*
D14*
X132885000Y-89600000D03*
D16*
X141775000Y-92140000D03*
X135425000Y-94680000D03*
D17*
X137050000Y-84900000D03*
X138880000Y-84900000D03*
X137050000Y-83800000D03*
X138880000Y-83800000D03*
%TD*%
D30*
%TO.C,J102*%
X92800000Y-48600000D03*
D31*
X92800000Y-51140000D03*
X92800000Y-53680000D03*
X92800000Y-56220000D03*
X92800000Y-58760000D03*
X92800000Y-61300000D03*
X92800000Y-63840000D03*
%TD*%
D14*
%TO.C,SW307*%
X219845000Y-89600000D03*
D15*
X214765000Y-89600000D03*
D14*
X209685000Y-89600000D03*
D16*
X218575000Y-92140000D03*
X212225000Y-94680000D03*
D17*
X213850000Y-84900000D03*
X215680000Y-84900000D03*
X213850000Y-83800000D03*
X215680000Y-83800000D03*
%TD*%
D32*
%TO.C,U102*%
X163321000Y-71825001D03*
X163321000Y-72475000D03*
X163321000Y-73124998D03*
X163321000Y-73774999D03*
X163321000Y-74424998D03*
X163321000Y-75074999D03*
X163321000Y-75724998D03*
X163321000Y-76374999D03*
X163321000Y-77024998D03*
X163321000Y-77674999D03*
X163321000Y-78324998D03*
X163321000Y-78974999D03*
X170179000Y-78974999D03*
X170179000Y-78325000D03*
X170179000Y-77674999D03*
X170179000Y-77025001D03*
X170179000Y-76374999D03*
X170179000Y-75725001D03*
X170179000Y-75075002D03*
X170179000Y-74425001D03*
X170179000Y-73775002D03*
X170179000Y-73125001D03*
X170179000Y-72475002D03*
X170179000Y-71825001D03*
%TD*%
D18*
%TO.C,R208*%
X226900000Y-69450000D03*
X226900000Y-67800000D03*
%TD*%
D26*
%TO.C,C202*%
X190000000Y-67900000D03*
X190000000Y-69450000D03*
%TD*%
D19*
%TO.C,R315*%
X213250000Y-100500000D03*
X211600000Y-100500000D03*
%TD*%
%TO.C,R203*%
X193250000Y-66300000D03*
X191600000Y-66300000D03*
%TD*%
D20*
%TO.C,C302*%
X121800000Y-81300000D03*
X120250000Y-81300000D03*
%TD*%
D29*
%TO.C,C105*%
X169300000Y-45200000D03*
X170850000Y-45200000D03*
%TD*%
D19*
%TO.C,R308*%
X232450000Y-81300000D03*
X230800000Y-81300000D03*
%TD*%
D20*
%TO.C,C316*%
X237000000Y-100500000D03*
X235450000Y-100500000D03*
%TD*%
D19*
%TO.C,R314*%
X194050000Y-100500000D03*
X192400000Y-100500000D03*
%TD*%
D26*
%TO.C,C101*%
X102900000Y-37400000D03*
X102900000Y-38950000D03*
%TD*%
D14*
%TO.C,SW302*%
X123845000Y-89600000D03*
D15*
X118765000Y-89600000D03*
D14*
X113685000Y-89600000D03*
D16*
X122575000Y-92140000D03*
X116225000Y-94680000D03*
D17*
X117850000Y-84900000D03*
X119680000Y-84900000D03*
X117850000Y-83800000D03*
X119680000Y-83800000D03*
%TD*%
D20*
%TO.C,C308*%
X237000000Y-81300000D03*
X235450000Y-81300000D03*
%TD*%
D33*
%TO.C,C103*%
X102900000Y-35900000D03*
X102900000Y-34350000D03*
%TD*%
D20*
%TO.C,C307*%
X217800000Y-81300000D03*
X216250000Y-81300000D03*
%TD*%
D25*
%TO.C,R106*%
X156700000Y-33400000D03*
X156700000Y-35050000D03*
%TD*%
D14*
%TO.C,SW315*%
X219845000Y-108800000D03*
D15*
X214765000Y-108800000D03*
D14*
X209685000Y-108800000D03*
D16*
X218575000Y-111340000D03*
X212225000Y-113880000D03*
D17*
X213850000Y-104100000D03*
X215680000Y-104100000D03*
X213850000Y-103000000D03*
X215680000Y-103000000D03*
%TD*%
D20*
%TO.C,C312*%
X160200000Y-100500000D03*
X158650000Y-100500000D03*
%TD*%
D34*
%TO.C,R202*%
X178550000Y-66300000D03*
X180200000Y-66300000D03*
%TD*%
D19*
%TO.C,R207*%
X231750000Y-66300000D03*
X230100000Y-66300000D03*
%TD*%
D20*
%TO.C,C309*%
X102600000Y-100500000D03*
X101050000Y-100500000D03*
%TD*%
D19*
%TO.C,R305*%
X174850000Y-81300000D03*
X173200000Y-81300000D03*
%TD*%
D25*
%TO.C,R201*%
X183400000Y-67900000D03*
X183400000Y-69550000D03*
%TD*%
D19*
%TO.C,R309*%
X98050000Y-100500000D03*
X96400000Y-100500000D03*
%TD*%
D35*
%TO.C,J103*%
X169590000Y-32600000D03*
D36*
X163810000Y-32600000D03*
D37*
X170050000Y-33750000D03*
X169250000Y-33750000D03*
X167950000Y-33750000D03*
X166950000Y-33750000D03*
X166450000Y-33750000D03*
X165450000Y-33750000D03*
X164150000Y-33750000D03*
X163350000Y-33750000D03*
X163650000Y-33750000D03*
X164450000Y-33750000D03*
X164950000Y-33750000D03*
X165950000Y-33750000D03*
X167450000Y-33750000D03*
X168450000Y-33750000D03*
X168950000Y-33750000D03*
X169750000Y-33750000D03*
D38*
X171025000Y-33175000D03*
D39*
X171025000Y-28900000D03*
D38*
X162375000Y-33175000D03*
D39*
X162375000Y-28900000D03*
%TD*%
D28*
%TO.C,H104*%
X247100000Y-121900000D03*
%TD*%
D19*
%TO.C,R307*%
X213250000Y-81300000D03*
X211600000Y-81300000D03*
%TD*%
D14*
%TO.C,SW310*%
X123845000Y-108800000D03*
D15*
X118765000Y-108800000D03*
D14*
X113685000Y-108800000D03*
D16*
X122575000Y-111340000D03*
X116225000Y-113880000D03*
D17*
X117850000Y-104100000D03*
X119680000Y-104100000D03*
X117850000Y-103000000D03*
X119680000Y-103000000D03*
%TD*%
D20*
%TO.C,C304*%
X160200000Y-81300000D03*
X158650000Y-81300000D03*
%TD*%
D30*
%TO.C,J101*%
X133200000Y-30900000D03*
D31*
X135740000Y-30900000D03*
X138280000Y-30900000D03*
X140820000Y-30900000D03*
X143360000Y-30900000D03*
X145900000Y-30900000D03*
%TD*%
D19*
%TO.C,R316*%
X232450000Y-100500000D03*
X230800000Y-100500000D03*
%TD*%
%TO.C,R304*%
X155650000Y-81300000D03*
X154000000Y-81300000D03*
%TD*%
%TO.C,R303*%
X136450000Y-81300000D03*
X134800000Y-81300000D03*
%TD*%
D20*
%TO.C,C313*%
X179400000Y-100500000D03*
X177850000Y-100500000D03*
%TD*%
D14*
%TO.C,SW304*%
X162245000Y-89600000D03*
D15*
X157165000Y-89600000D03*
D14*
X152085000Y-89600000D03*
D16*
X160975000Y-92140000D03*
X154625000Y-94680000D03*
D17*
X156250000Y-84900000D03*
X158080000Y-84900000D03*
X156250000Y-83800000D03*
X158080000Y-83800000D03*
%TD*%
D40*
%TO.C,F101*%
X166700000Y-35800000D03*
X166700000Y-40075000D03*
%TD*%
D41*
%TO.C,L101*%
X173000000Y-28100000D03*
X173000000Y-29675000D03*
%TD*%
D19*
%TO.C,R306*%
X194050000Y-81300000D03*
X192400000Y-81300000D03*
%TD*%
D34*
%TO.C,R206*%
X217050000Y-66300000D03*
X218700000Y-66300000D03*
%TD*%
D25*
%TO.C,R205*%
X221900000Y-67800000D03*
X221900000Y-69450000D03*
%TD*%
D14*
%TO.C,SW312*%
X162245000Y-108800000D03*
D15*
X157165000Y-108800000D03*
D14*
X152085000Y-108800000D03*
D16*
X160975000Y-111340000D03*
X154625000Y-113880000D03*
D17*
X156250000Y-104100000D03*
X158080000Y-104100000D03*
X156250000Y-103000000D03*
X158080000Y-103000000D03*
%TD*%
D26*
%TO.C,C203*%
X220300000Y-67800000D03*
X220300000Y-69350000D03*
%TD*%
D20*
%TO.C,C310*%
X121800000Y-100500000D03*
X120250000Y-100500000D03*
%TD*%
D28*
%TO.C,H101*%
X86500000Y-30700000D03*
%TD*%
%TO.C,H102*%
X247100000Y-30700000D03*
%TD*%
D26*
%TO.C,C204*%
X228500000Y-67800000D03*
X228500000Y-69350000D03*
%TD*%
D14*
%TO.C,SW308*%
X239045000Y-89600000D03*
D15*
X233965000Y-89600000D03*
D14*
X228885000Y-89600000D03*
D16*
X237775000Y-92140000D03*
X231425000Y-94680000D03*
D17*
X233050000Y-84900000D03*
X234880000Y-84900000D03*
X233050000Y-83800000D03*
X234880000Y-83800000D03*
%TD*%
D19*
%TO.C,R302*%
X117250000Y-81300000D03*
X115600000Y-81300000D03*
%TD*%
D18*
%TO.C,R103*%
X173000000Y-34050000D03*
X173000000Y-32400000D03*
%TD*%
D19*
%TO.C,R301*%
X98050000Y-81300000D03*
X96400000Y-81300000D03*
%TD*%
D20*
%TO.C,C315*%
X217800000Y-100500000D03*
X216250000Y-100500000D03*
%TD*%
D14*
%TO.C,SW313*%
X181445000Y-108800000D03*
D15*
X176365000Y-108800000D03*
D14*
X171285000Y-108800000D03*
D16*
X180175000Y-111340000D03*
X173825000Y-113880000D03*
D17*
X175450000Y-104100000D03*
X177280000Y-104100000D03*
X175450000Y-103000000D03*
X177280000Y-103000000D03*
%TD*%
M02*
