%TF.GenerationSoftware,KiCad,Pcbnew,8.0.1-8.0.1-1~ubuntu22.04.1*%
%TF.CreationDate,2024-04-27T07:34:54-05:00*%
%TF.ProjectId,Universal Control Box,556e6976-6572-4736-916c-20436f6e7472,rev?*%
%TF.SameCoordinates,Original*%
%TF.FileFunction,Copper,L1,Top*%
%TF.FilePolarity,Positive*%
%FSLAX46Y46*%
G04 Gerber Fmt 4.6, Leading zero omitted, Abs format (unit mm)*
G04 Created by KiCad (PCBNEW 8.0.1-8.0.1-1~ubuntu22.04.1) date 2024-04-27 07:34:54*
%MOMM*%
%LPD*%
G01*
G04 APERTURE LIST*
G04 Aperture macros list*
%AMRoundRect*
0 Rectangle with rounded corners*
0 $1 Rounding radius*
0 $2 $3 $4 $5 $6 $7 $8 $9 X,Y pos of 4 corners*
0 Add a 4 corners polygon primitive as box body*
4,1,4,$2,$3,$4,$5,$6,$7,$8,$9,$2,$3,0*
0 Add four circle primitives for the rounded corners*
1,1,$1+$1,$2,$3*
1,1,$1+$1,$4,$5*
1,1,$1+$1,$6,$7*
1,1,$1+$1,$8,$9*
0 Add four rect primitives between the rounded corners*
20,1,$1+$1,$2,$3,$4,$5,0*
20,1,$1+$1,$4,$5,$6,$7,0*
20,1,$1+$1,$6,$7,$8,$9,0*
20,1,$1+$1,$8,$9,$2,$3,0*%
G04 Aperture macros list end*
%TA.AperFunction,ComponentPad*%
%ADD10C,1.500000*%
%TD*%
%TA.AperFunction,ComponentPad*%
%ADD11C,3.915000*%
%TD*%
%TA.AperFunction,SMDPad,CuDef*%
%ADD12RoundRect,0.243750X-0.456250X0.243750X-0.456250X-0.243750X0.456250X-0.243750X0.456250X0.243750X0*%
%TD*%
%TA.AperFunction,SMDPad,CuDef*%
%ADD13RoundRect,0.243750X0.456250X-0.243750X0.456250X0.243750X-0.456250X0.243750X-0.456250X-0.243750X0*%
%TD*%
%TA.AperFunction,ComponentPad*%
%ADD14C,2.200000*%
%TD*%
%TA.AperFunction,SMDPad,CuDef*%
%ADD15R,0.700000X0.700000*%
%TD*%
%TA.AperFunction,SMDPad,CuDef*%
%ADD16RoundRect,0.200000X0.275000X-0.200000X0.275000X0.200000X-0.275000X0.200000X-0.275000X-0.200000X0*%
%TD*%
%TA.AperFunction,SMDPad,CuDef*%
%ADD17RoundRect,0.200000X0.200000X0.275000X-0.200000X0.275000X-0.200000X-0.275000X0.200000X-0.275000X0*%
%TD*%
%TA.AperFunction,SMDPad,CuDef*%
%ADD18RoundRect,0.225000X0.225000X0.250000X-0.225000X0.250000X-0.225000X-0.250000X0.225000X-0.250000X0*%
%TD*%
%TA.AperFunction,SMDPad,CuDef*%
%ADD19R,1.500000X0.900000*%
%TD*%
%TA.AperFunction,SMDPad,CuDef*%
%ADD20R,0.900000X1.500000*%
%TD*%
%TA.AperFunction,SMDPad,CuDef*%
%ADD21R,1.050000X1.050000*%
%TD*%
%TA.AperFunction,ComponentPad*%
%ADD22C,0.475000*%
%TD*%
%TA.AperFunction,SMDPad,CuDef*%
%ADD23R,4.200000X4.200000*%
%TD*%
%TA.AperFunction,SMDPad,CuDef*%
%ADD24RoundRect,0.200000X-0.275000X0.200000X-0.275000X-0.200000X0.275000X-0.200000X0.275000X0.200000X0*%
%TD*%
%TA.AperFunction,SMDPad,CuDef*%
%ADD25RoundRect,0.225000X-0.250000X0.225000X-0.250000X-0.225000X0.250000X-0.225000X0.250000X0.225000X0*%
%TD*%
%TA.AperFunction,SMDPad,CuDef*%
%ADD26RoundRect,0.150000X-0.150000X0.512500X-0.150000X-0.512500X0.150000X-0.512500X0.150000X0.512500X0*%
%TD*%
%TA.AperFunction,SMDPad,CuDef*%
%ADD27RoundRect,0.225000X-0.225000X-0.250000X0.225000X-0.250000X0.225000X0.250000X-0.225000X0.250000X0*%
%TD*%
%TA.AperFunction,ComponentPad*%
%ADD28R,1.700000X1.700000*%
%TD*%
%TA.AperFunction,ComponentPad*%
%ADD29O,1.700000X1.700000*%
%TD*%
%TA.AperFunction,SMDPad,CuDef*%
%ADD30R,2.057400X0.431800*%
%TD*%
%TA.AperFunction,SMDPad,CuDef*%
%ADD31RoundRect,0.225000X0.250000X-0.225000X0.250000X0.225000X-0.250000X0.225000X-0.250000X-0.225000X0*%
%TD*%
%TA.AperFunction,SMDPad,CuDef*%
%ADD32RoundRect,0.200000X-0.200000X-0.275000X0.200000X-0.275000X0.200000X0.275000X-0.200000X0.275000X0*%
%TD*%
%TA.AperFunction,SMDPad,CuDef*%
%ADD33R,0.300000X1.400000*%
%TD*%
%TA.AperFunction,ComponentPad*%
%ADD34O,1.200000X2.300000*%
%TD*%
%TA.AperFunction,ComponentPad*%
%ADD35O,1.200000X2.000000*%
%TD*%
%TA.AperFunction,SMDPad,CuDef*%
%ADD36RoundRect,0.250000X-1.450000X0.312500X-1.450000X-0.312500X1.450000X-0.312500X1.450000X0.312500X0*%
%TD*%
%TA.AperFunction,SMDPad,CuDef*%
%ADD37RoundRect,0.218750X-0.256250X0.218750X-0.256250X-0.218750X0.256250X-0.218750X0.256250X0.218750X0*%
%TD*%
%TA.AperFunction,ViaPad*%
%ADD38C,0.800000*%
%TD*%
%TA.AperFunction,Conductor*%
%ADD39C,0.500000*%
%TD*%
%TA.AperFunction,Conductor*%
%ADD40C,0.200000*%
%TD*%
%TA.AperFunction,Conductor*%
%ADD41C,0.250000*%
%TD*%
G04 APERTURE END LIST*
D10*
%TO.P,U202,A1,CHANNEL_1*%
%TO.N,Net-(U202-CHANNEL_1)*%
X221900000Y-63650000D03*
%TO.P,U202,B1,CHANNEL_2*%
%TO.N,Net-(U202-CHANNEL_2)*%
X226900000Y-63650000D03*
%TO.P,U202,C1,COMMON*%
%TO.N,GND*%
X224400000Y-63650000D03*
D11*
%TO.P,U202,MH1,MH1*%
X218700000Y-56150000D03*
%TO.P,U202,MH2,MH2*%
X230100000Y-56150000D03*
D10*
%TO.P,U202,S1,S1*%
X221900000Y-49150000D03*
%TO.P,U202,W1,W1*%
%TO.N,/Rotary Encoders/SW_RSW2*%
X226900000Y-49150000D03*
%TD*%
%TO.P,U201,A1,CHANNEL_1*%
%TO.N,Net-(U201-CHANNEL_1)*%
X183400000Y-63650000D03*
%TO.P,U201,B1,CHANNEL_2*%
%TO.N,Net-(U201-CHANNEL_2)*%
X188400000Y-63650000D03*
%TO.P,U201,C1,COMMON*%
%TO.N,GND*%
X185900000Y-63650000D03*
D11*
%TO.P,U201,MH1,MH1*%
X180200000Y-56150000D03*
%TO.P,U201,MH2,MH2*%
X191600000Y-56150000D03*
D10*
%TO.P,U201,S1,S1*%
X183400000Y-49150000D03*
%TO.P,U201,W1,W1*%
%TO.N,/Rotary Encoders/SW_RSW1*%
X188400000Y-49150000D03*
%TD*%
D12*
%TO.P,D103,1,K*%
%TO.N,/ESP_TX*%
X156700000Y-29962500D03*
%TO.P,D103,2,A*%
%TO.N,Net-(D103-A)*%
X156700000Y-31837500D03*
%TD*%
D13*
%TO.P,D102,1,K*%
%TO.N,Net-(D102-K)*%
X153800000Y-31837500D03*
%TO.P,D102,2,A*%
%TO.N,/HA_STATUS*%
X153800000Y-29962500D03*
%TD*%
D12*
%TO.P,D101,1,K*%
%TO.N,GND*%
X150800000Y-29962500D03*
%TO.P,D101,2,A*%
%TO.N,Net-(D101-A)*%
X150800000Y-31837500D03*
%TD*%
D14*
%TO.P,SW306,1*%
%TO.N,+3.3V*%
X199375000Y-92140000D03*
%TO.P,SW306,2*%
%TO.N,/KeyCaps/SW6*%
X193025000Y-94680000D03*
D15*
%TO.P,SW306,3,VDD*%
%TO.N,+5V*%
X194650000Y-84900000D03*
%TO.P,SW306,4,DOUT*%
%TO.N,Net-(SW306-DOUT)*%
X196480000Y-84900000D03*
%TO.P,SW306,5,DIN*%
%TO.N,Net-(SW305-DOUT)*%
X194650000Y-83800000D03*
%TO.P,SW306,6,GND*%
%TO.N,GND*%
X196480000Y-83800000D03*
%TD*%
D14*
%TO.P,SW311,1*%
%TO.N,+3.3V*%
X141775000Y-111340000D03*
%TO.P,SW311,2*%
%TO.N,/KeyCaps/SW11*%
X135425000Y-113880000D03*
D15*
%TO.P,SW311,3,VDD*%
%TO.N,+5V*%
X137050000Y-104100000D03*
%TO.P,SW311,4,DOUT*%
%TO.N,Net-(SW311-DOUT)*%
X138880000Y-104100000D03*
%TO.P,SW311,5,DIN*%
%TO.N,Net-(SW310-DOUT)*%
X137050000Y-103000000D03*
%TO.P,SW311,6,GND*%
%TO.N,GND*%
X138880000Y-103000000D03*
%TD*%
D16*
%TO.P,R204,1*%
%TO.N,/Rotary Encoders/B_RSW1*%
X188400000Y-69550000D03*
%TO.P,R204,2*%
%TO.N,Net-(U201-CHANNEL_2)*%
X188400000Y-67900000D03*
%TD*%
D17*
%TO.P,R313,1*%
%TO.N,/KeyCaps/SW13*%
X174850000Y-100500000D03*
%TO.P,R313,2*%
%TO.N,GND*%
X173200000Y-100500000D03*
%TD*%
D18*
%TO.P,C314,1*%
%TO.N,GND*%
X198600000Y-100500000D03*
%TO.P,C314,2*%
%TO.N,+5V*%
X197050000Y-100500000D03*
%TD*%
%TO.P,C306,1*%
%TO.N,GND*%
X198600000Y-81300000D03*
%TO.P,C306,2*%
%TO.N,+5V*%
X197050000Y-81300000D03*
%TD*%
D19*
%TO.P,U101,1,GND*%
%TO.N,GND*%
X106200000Y-34600000D03*
%TO.P,U101,2,VDD*%
%TO.N,+3.3V*%
X106200000Y-35870000D03*
%TO.P,U101,3,EN*%
%TO.N,/EN*%
X106200000Y-37140000D03*
%TO.P,U101,4,SENSOR_VP*%
%TO.N,unconnected-(U101-SENSOR_VP-Pad4)*%
X106200000Y-38410000D03*
%TO.P,U101,5,SENSOR_VN*%
%TO.N,unconnected-(U101-SENSOR_VN-Pad5)*%
X106200000Y-39680000D03*
%TO.P,U101,6,IO34*%
%TO.N,unconnected-(U101-IO34-Pad6)*%
X106200000Y-40950000D03*
%TO.P,U101,7,IO35*%
%TO.N,unconnected-(U101-IO35-Pad7)*%
X106200000Y-42220000D03*
%TO.P,U101,8,IO32*%
%TO.N,/OLED_RESET*%
X106200000Y-43490000D03*
%TO.P,U101,9,IO33*%
%TO.N,/OLED_DC*%
X106200000Y-44760000D03*
%TO.P,U101,10,IO25*%
%TO.N,/Rotary Encoders/B_RSW1*%
X106200000Y-46030000D03*
%TO.P,U101,11,IO26*%
%TO.N,/Rotary Encoders/B_RSW2*%
X106200000Y-47300000D03*
%TO.P,U101,12,IO27*%
%TO.N,/LED_DATA*%
X106200000Y-48570000D03*
%TO.P,U101,13,IO14*%
%TO.N,/Rotary Encoders/SW_RSW2*%
X106200000Y-49840000D03*
%TO.P,U101,14,IO12*%
%TO.N,unconnected-(U101-IO12-Pad14)*%
X106200000Y-51110000D03*
D20*
%TO.P,U101,15,GND*%
%TO.N,GND*%
X109240000Y-52360000D03*
%TO.P,U101,16,IO13*%
%TO.N,/Rotary Encoders/SW_RSW1*%
X110510000Y-52360000D03*
%TO.P,U101,17,SHD/SD2*%
%TO.N,unconnected-(U101-SHD{slash}SD2-Pad17)*%
X111780000Y-52360000D03*
%TO.P,U101,18,SWP/SD3*%
%TO.N,unconnected-(U101-SWP{slash}SD3-Pad18)*%
X113050000Y-52360000D03*
%TO.P,U101,19,SCS/CMD*%
%TO.N,unconnected-(U101-SCS{slash}CMD-Pad19)*%
X114320000Y-52360000D03*
%TO.P,U101,20,SCK/CLK*%
%TO.N,unconnected-(U101-SCK{slash}CLK-Pad20)*%
X115590000Y-52360000D03*
%TO.P,U101,21,SDO/SD0*%
%TO.N,unconnected-(U101-SDO{slash}SD0-Pad21)*%
X116860000Y-52360000D03*
%TO.P,U101,22,SDI/SD1*%
%TO.N,unconnected-(U101-SDI{slash}SD1-Pad22)*%
X118130000Y-52360000D03*
%TO.P,U101,23,IO15*%
%TO.N,/HA_STATUS*%
X119400000Y-52360000D03*
%TO.P,U101,24,IO2*%
%TO.N,unconnected-(U101-IO2-Pad24)*%
X120670000Y-52360000D03*
D19*
%TO.P,U101,25,IO0*%
%TO.N,/IO0*%
X123700000Y-51110000D03*
%TO.P,U101,26,IO4*%
%TO.N,unconnected-(U101-IO4-Pad26)*%
X123700000Y-49840000D03*
%TO.P,U101,27,IO16*%
%TO.N,/Rotary Encoders/A_RSW1*%
X123700000Y-48570000D03*
%TO.P,U101,28,IO17*%
%TO.N,/Rotary Encoders/A_RSW2*%
X123700000Y-47300000D03*
%TO.P,U101,29,IO5*%
%TO.N,/OLED_CS*%
X123700000Y-46030000D03*
%TO.P,U101,30,IO18*%
%TO.N,/OLED_SCL*%
X123700000Y-44760000D03*
%TO.P,U101,31,IO19*%
%TO.N,/IO_INT*%
X123700000Y-43490000D03*
%TO.P,U101,32,NC*%
%TO.N,unconnected-(U101-NC-Pad32)*%
X123700000Y-42220000D03*
%TO.P,U101,33,IO21*%
%TO.N,/I2C_SDA*%
X123700000Y-40950000D03*
%TO.P,U101,34,RXD0/IO3*%
%TO.N,/ESP_RX*%
X123700000Y-39680000D03*
%TO.P,U101,35,TXD0/IO1*%
%TO.N,/ESP_TX*%
X123700000Y-38410000D03*
%TO.P,U101,36,IO22*%
%TO.N,/I2C_SCL*%
X123700000Y-37140000D03*
%TO.P,U101,37,IO23*%
%TO.N,/OLED_MOSI*%
X123700000Y-35870000D03*
%TO.P,U101,38,GND*%
%TO.N,GND*%
X123700000Y-34600000D03*
D21*
%TO.P,U101,39,GND*%
X112745000Y-40415000D03*
D22*
X112745000Y-41177500D03*
D21*
X112745000Y-41940000D03*
D22*
X112745000Y-42702500D03*
D21*
X112745000Y-43465000D03*
D22*
X113507500Y-40415000D03*
X113507500Y-41940000D03*
X113507500Y-43465000D03*
D21*
X114270000Y-40415000D03*
D22*
X114270000Y-41177500D03*
D21*
X114270000Y-41940000D03*
D23*
X114270000Y-41940000D03*
D22*
X114270000Y-42702500D03*
D21*
X114270000Y-43465000D03*
D22*
X115032500Y-40415000D03*
X115032500Y-41940000D03*
X115032500Y-43465000D03*
D21*
X115795000Y-40415000D03*
D22*
X115795000Y-41177500D03*
D21*
X115795000Y-41940000D03*
D22*
X115795000Y-42702500D03*
D21*
X115795000Y-43465000D03*
%TD*%
D17*
%TO.P,R310,1*%
%TO.N,/KeyCaps/SW10*%
X117250000Y-100500000D03*
%TO.P,R310,2*%
%TO.N,GND*%
X115600000Y-100500000D03*
%TD*%
D24*
%TO.P,R102,1*%
%TO.N,Net-(J103-CC2)*%
X160400000Y-32400000D03*
%TO.P,R102,2*%
%TO.N,GND*%
X160400000Y-34050000D03*
%TD*%
D14*
%TO.P,SW309,1*%
%TO.N,+3.3V*%
X103375000Y-111340000D03*
%TO.P,SW309,2*%
%TO.N,/KeyCaps/SW9*%
X97025000Y-113880000D03*
D15*
%TO.P,SW309,3,VDD*%
%TO.N,+5V*%
X98650000Y-104100000D03*
%TO.P,SW309,4,DOUT*%
%TO.N,Net-(SW309-DOUT)*%
X100480000Y-104100000D03*
%TO.P,SW309,5,DIN*%
%TO.N,Net-(SW308-DOUT)*%
X98650000Y-103000000D03*
%TO.P,SW309,6,GND*%
%TO.N,GND*%
X100480000Y-103000000D03*
%TD*%
D25*
%TO.P,C102,1*%
%TO.N,GND*%
X101300000Y-34350000D03*
%TO.P,C102,2*%
%TO.N,+3.3V*%
X101300000Y-35900000D03*
%TD*%
%TO.P,C201,1*%
%TO.N,Net-(U201-CHANNEL_1)*%
X181800000Y-67900000D03*
%TO.P,C201,2*%
%TO.N,GND*%
X181800000Y-69450000D03*
%TD*%
D24*
%TO.P,R104,1*%
%TO.N,Net-(D101-A)*%
X150800000Y-33400000D03*
%TO.P,R104,2*%
%TO.N,+3.3V*%
X150800000Y-35050000D03*
%TD*%
D18*
%TO.P,C305,1*%
%TO.N,GND*%
X179400000Y-81300000D03*
%TO.P,C305,2*%
%TO.N,+5V*%
X177850000Y-81300000D03*
%TD*%
D14*
%TO.P,SW305,1*%
%TO.N,+3.3V*%
X180175000Y-92140000D03*
%TO.P,SW305,2*%
%TO.N,/KeyCaps/SW5*%
X173825000Y-94680000D03*
D15*
%TO.P,SW305,3,VDD*%
%TO.N,+5V*%
X175450000Y-84900000D03*
%TO.P,SW305,4,DOUT*%
%TO.N,Net-(SW305-DOUT)*%
X177280000Y-84900000D03*
%TO.P,SW305,5,DIN*%
%TO.N,Net-(SW304-DOUT)*%
X175450000Y-83800000D03*
%TO.P,SW305,6,GND*%
%TO.N,GND*%
X177280000Y-83800000D03*
%TD*%
D26*
%TO.P,U103,1,VIN*%
%TO.N,+5V*%
X167700000Y-42900000D03*
%TO.P,U103,2,GND*%
%TO.N,GND*%
X166750000Y-42900000D03*
%TO.P,U103,3,CE*%
%TO.N,+5V*%
X165800000Y-42900000D03*
%TO.P,U103,4,NC*%
%TO.N,unconnected-(U103-NC-Pad4)*%
X165800000Y-45175000D03*
%TO.P,U103,5,VOUT*%
%TO.N,+3.3V*%
X167700000Y-45175000D03*
%TD*%
D17*
%TO.P,R312,1*%
%TO.N,/KeyCaps/SW12*%
X155650000Y-100500000D03*
%TO.P,R312,2*%
%TO.N,GND*%
X154000000Y-100500000D03*
%TD*%
D14*
%TO.P,SW314,1*%
%TO.N,+3.3V*%
X199375000Y-111340000D03*
%TO.P,SW314,2*%
%TO.N,/KeyCaps/SW14*%
X193025000Y-113880000D03*
D15*
%TO.P,SW314,3,VDD*%
%TO.N,+5V*%
X194650000Y-104100000D03*
%TO.P,SW314,4,DOUT*%
%TO.N,Net-(SW314-DOUT)*%
X196480000Y-104100000D03*
%TO.P,SW314,5,DIN*%
%TO.N,Net-(SW313-DOUT)*%
X194650000Y-103000000D03*
%TO.P,SW314,6,GND*%
%TO.N,GND*%
X196480000Y-103000000D03*
%TD*%
D14*
%TO.P,SW316,1*%
%TO.N,+3.3V*%
X237775000Y-111340000D03*
%TO.P,SW316,2*%
%TO.N,/KeyCaps/SW16*%
X231425000Y-113880000D03*
D15*
%TO.P,SW316,3,VDD*%
%TO.N,+5V*%
X233050000Y-104100000D03*
%TO.P,SW316,4,DOUT*%
%TO.N,unconnected-(SW316-DOUT-Pad4)*%
X234880000Y-104100000D03*
%TO.P,SW316,5,DIN*%
%TO.N,Net-(SW315-DOUT)*%
X233050000Y-103000000D03*
%TO.P,SW316,6,GND*%
%TO.N,GND*%
X234880000Y-103000000D03*
%TD*%
D14*
%TO.P,SW301,1*%
%TO.N,+3.3V*%
X103375000Y-92140000D03*
%TO.P,SW301,2*%
%TO.N,/KeyCaps/SW1*%
X97025000Y-94680000D03*
D15*
%TO.P,SW301,3,VDD*%
%TO.N,+5V*%
X98650000Y-84900000D03*
%TO.P,SW301,4,DOUT*%
%TO.N,Net-(SW301-DOUT)*%
X100480000Y-84900000D03*
%TO.P,SW301,5,DIN*%
%TO.N,/LED_DATA*%
X98650000Y-83800000D03*
%TO.P,SW301,6,GND*%
%TO.N,GND*%
X100480000Y-83800000D03*
%TD*%
D27*
%TO.P,C104,1*%
%TO.N,GND*%
X162350000Y-41400000D03*
%TO.P,C104,2*%
%TO.N,+5V*%
X163900000Y-41400000D03*
%TD*%
D16*
%TO.P,R101,1*%
%TO.N,+3.3V*%
X101300000Y-39050000D03*
%TO.P,R101,2*%
%TO.N,/EN*%
X101300000Y-37400000D03*
%TD*%
D18*
%TO.P,C301,1*%
%TO.N,GND*%
X102600000Y-81300000D03*
%TO.P,C301,2*%
%TO.N,+5V*%
X101050000Y-81300000D03*
%TD*%
D16*
%TO.P,R105,1*%
%TO.N,GND*%
X153800000Y-35050000D03*
%TO.P,R105,2*%
%TO.N,Net-(D102-K)*%
X153800000Y-33400000D03*
%TD*%
D17*
%TO.P,R311,1*%
%TO.N,/KeyCaps/SW11*%
X136450000Y-100500000D03*
%TO.P,R311,2*%
%TO.N,GND*%
X134800000Y-100500000D03*
%TD*%
D18*
%TO.P,C303,1*%
%TO.N,GND*%
X141000000Y-81300000D03*
%TO.P,C303,2*%
%TO.N,+5V*%
X139450000Y-81300000D03*
%TD*%
%TO.P,C311,1*%
%TO.N,GND*%
X141000000Y-100500000D03*
%TO.P,C311,2*%
%TO.N,+5V*%
X139450000Y-100500000D03*
%TD*%
D14*
%TO.P,SW303,1*%
%TO.N,+3.3V*%
X141775000Y-92140000D03*
%TO.P,SW303,2*%
%TO.N,/KeyCaps/SW3*%
X135425000Y-94680000D03*
D15*
%TO.P,SW303,3,VDD*%
%TO.N,+5V*%
X137050000Y-84900000D03*
%TO.P,SW303,4,DOUT*%
%TO.N,Net-(SW303-DOUT)*%
X138880000Y-84900000D03*
%TO.P,SW303,5,DIN*%
%TO.N,Net-(SW302-DOUT)*%
X137050000Y-83800000D03*
%TO.P,SW303,6,GND*%
%TO.N,GND*%
X138880000Y-83800000D03*
%TD*%
D28*
%TO.P,J102,1,Pin_1*%
%TO.N,/OLED_CS*%
X92800000Y-48600000D03*
D29*
%TO.P,J102,2,Pin_2*%
%TO.N,/OLED_DC*%
X92800000Y-51140000D03*
%TO.P,J102,3,Pin_3*%
%TO.N,/OLED_RESET*%
X92800000Y-53680000D03*
%TO.P,J102,4,Pin_4*%
%TO.N,/OLED_MOSI*%
X92800000Y-56220000D03*
%TO.P,J102,5,Pin_5*%
%TO.N,/OLED_SCL*%
X92800000Y-58760000D03*
%TO.P,J102,6,Pin_6*%
%TO.N,+5V*%
X92800000Y-61300000D03*
%TO.P,J102,7,Pin_7*%
%TO.N,GND*%
X92800000Y-63840000D03*
%TD*%
D14*
%TO.P,SW307,1*%
%TO.N,+3.3V*%
X218575000Y-92140000D03*
%TO.P,SW307,2*%
%TO.N,/KeyCaps/SW7*%
X212225000Y-94680000D03*
D15*
%TO.P,SW307,3,VDD*%
%TO.N,+5V*%
X213850000Y-84900000D03*
%TO.P,SW307,4,DOUT*%
%TO.N,Net-(SW307-DOUT)*%
X215680000Y-84900000D03*
%TO.P,SW307,5,DIN*%
%TO.N,Net-(SW306-DOUT)*%
X213850000Y-83800000D03*
%TO.P,SW307,6,GND*%
%TO.N,GND*%
X215680000Y-83800000D03*
%TD*%
D30*
%TO.P,U102,1,\u002AINT*%
%TO.N,/IO_INT*%
X163321000Y-71825001D03*
%TO.P,U102,2,A1*%
%TO.N,GND*%
X163321000Y-72475000D03*
%TO.P,U102,3,A2*%
X163321000Y-73124998D03*
%TO.P,U102,4,P00*%
%TO.N,/KeyCaps/SW1*%
X163321000Y-73774999D03*
%TO.P,U102,5,P01*%
%TO.N,/KeyCaps/SW2*%
X163321000Y-74424998D03*
%TO.P,U102,6,P02*%
%TO.N,/KeyCaps/SW3*%
X163321000Y-75074999D03*
%TO.P,U102,7,P03*%
%TO.N,/KeyCaps/SW4*%
X163321000Y-75724998D03*
%TO.P,U102,8,P04*%
%TO.N,/KeyCaps/SW12*%
X163321000Y-76374999D03*
%TO.P,U102,9,P05*%
%TO.N,/KeyCaps/SW11*%
X163321000Y-77024998D03*
%TO.P,U102,10,P06*%
%TO.N,/KeyCaps/SW10*%
X163321000Y-77674999D03*
%TO.P,U102,11,P07*%
%TO.N,/KeyCaps/SW9*%
X163321000Y-78324998D03*
%TO.P,U102,12,GND*%
%TO.N,GND*%
X163321000Y-78974999D03*
%TO.P,U102,13,P10*%
%TO.N,/KeyCaps/SW16*%
X170179000Y-78974999D03*
%TO.P,U102,14,P11*%
%TO.N,/KeyCaps/SW15*%
X170179000Y-78325000D03*
%TO.P,U102,15,P12*%
%TO.N,/KeyCaps/SW14*%
X170179000Y-77674999D03*
%TO.P,U102,16,P13*%
%TO.N,/KeyCaps/SW13*%
X170179000Y-77025001D03*
%TO.P,U102,17,P14*%
%TO.N,/KeyCaps/SW5*%
X170179000Y-76374999D03*
%TO.P,U102,18,P15*%
%TO.N,/KeyCaps/SW6*%
X170179000Y-75725001D03*
%TO.P,U102,19,P16*%
%TO.N,/KeyCaps/SW7*%
X170179000Y-75075002D03*
%TO.P,U102,20,P17*%
%TO.N,/KeyCaps/SW8*%
X170179000Y-74425001D03*
%TO.P,U102,21,A0*%
%TO.N,GND*%
X170179000Y-73775002D03*
%TO.P,U102,22,SCL*%
%TO.N,/I2C_SCL*%
X170179000Y-73125001D03*
%TO.P,U102,23,SDA*%
%TO.N,/I2C_SDA*%
X170179000Y-72475002D03*
%TO.P,U102,24,VCC*%
%TO.N,+3.3V*%
X170179000Y-71825001D03*
%TD*%
D16*
%TO.P,R208,1*%
%TO.N,/Rotary Encoders/B_RSW2*%
X226900000Y-69450000D03*
%TO.P,R208,2*%
%TO.N,Net-(U202-CHANNEL_2)*%
X226900000Y-67800000D03*
%TD*%
D25*
%TO.P,C202,1*%
%TO.N,Net-(U201-CHANNEL_2)*%
X190000000Y-67900000D03*
%TO.P,C202,2*%
%TO.N,GND*%
X190000000Y-69450000D03*
%TD*%
D17*
%TO.P,R315,1*%
%TO.N,/KeyCaps/SW15*%
X213250000Y-100500000D03*
%TO.P,R315,2*%
%TO.N,GND*%
X211600000Y-100500000D03*
%TD*%
%TO.P,R203,1*%
%TO.N,+5V*%
X193250000Y-66300000D03*
%TO.P,R203,2*%
%TO.N,Net-(U201-CHANNEL_2)*%
X191600000Y-66300000D03*
%TD*%
D18*
%TO.P,C302,1*%
%TO.N,GND*%
X121800000Y-81300000D03*
%TO.P,C302,2*%
%TO.N,+5V*%
X120250000Y-81300000D03*
%TD*%
D27*
%TO.P,C105,1*%
%TO.N,+3.3V*%
X169300000Y-45200000D03*
%TO.P,C105,2*%
%TO.N,GND*%
X170850000Y-45200000D03*
%TD*%
D17*
%TO.P,R308,1*%
%TO.N,/KeyCaps/SW8*%
X232450000Y-81300000D03*
%TO.P,R308,2*%
%TO.N,GND*%
X230800000Y-81300000D03*
%TD*%
D18*
%TO.P,C316,1*%
%TO.N,GND*%
X237000000Y-100500000D03*
%TO.P,C316,2*%
%TO.N,+5V*%
X235450000Y-100500000D03*
%TD*%
D17*
%TO.P,R314,1*%
%TO.N,/KeyCaps/SW14*%
X194050000Y-100500000D03*
%TO.P,R314,2*%
%TO.N,GND*%
X192400000Y-100500000D03*
%TD*%
D25*
%TO.P,C101,1*%
%TO.N,/EN*%
X102900000Y-37400000D03*
%TO.P,C101,2*%
%TO.N,GND*%
X102900000Y-38950000D03*
%TD*%
D14*
%TO.P,SW302,1*%
%TO.N,+3.3V*%
X122575000Y-92140000D03*
%TO.P,SW302,2*%
%TO.N,/KeyCaps/SW2*%
X116225000Y-94680000D03*
D15*
%TO.P,SW302,3,VDD*%
%TO.N,+5V*%
X117850000Y-84900000D03*
%TO.P,SW302,4,DOUT*%
%TO.N,Net-(SW302-DOUT)*%
X119680000Y-84900000D03*
%TO.P,SW302,5,DIN*%
%TO.N,Net-(SW301-DOUT)*%
X117850000Y-83800000D03*
%TO.P,SW302,6,GND*%
%TO.N,GND*%
X119680000Y-83800000D03*
%TD*%
D18*
%TO.P,C308,1*%
%TO.N,GND*%
X237000000Y-81300000D03*
%TO.P,C308,2*%
%TO.N,+5V*%
X235450000Y-81300000D03*
%TD*%
D31*
%TO.P,C103,1*%
%TO.N,+3.3V*%
X102900000Y-35900000D03*
%TO.P,C103,2*%
%TO.N,GND*%
X102900000Y-34350000D03*
%TD*%
D18*
%TO.P,C307,1*%
%TO.N,GND*%
X217800000Y-81300000D03*
%TO.P,C307,2*%
%TO.N,+5V*%
X216250000Y-81300000D03*
%TD*%
D24*
%TO.P,R106,1*%
%TO.N,Net-(D103-A)*%
X156700000Y-33400000D03*
%TO.P,R106,2*%
%TO.N,+3.3V*%
X156700000Y-35050000D03*
%TD*%
D14*
%TO.P,SW315,1*%
%TO.N,+3.3V*%
X218575000Y-111340000D03*
%TO.P,SW315,2*%
%TO.N,/KeyCaps/SW15*%
X212225000Y-113880000D03*
D15*
%TO.P,SW315,3,VDD*%
%TO.N,+5V*%
X213850000Y-104100000D03*
%TO.P,SW315,4,DOUT*%
%TO.N,Net-(SW315-DOUT)*%
X215680000Y-104100000D03*
%TO.P,SW315,5,DIN*%
%TO.N,Net-(SW314-DOUT)*%
X213850000Y-103000000D03*
%TO.P,SW315,6,GND*%
%TO.N,GND*%
X215680000Y-103000000D03*
%TD*%
D18*
%TO.P,C312,1*%
%TO.N,GND*%
X160200000Y-100500000D03*
%TO.P,C312,2*%
%TO.N,+5V*%
X158650000Y-100500000D03*
%TD*%
D32*
%TO.P,R202,1*%
%TO.N,+5V*%
X178550000Y-66300000D03*
%TO.P,R202,2*%
%TO.N,Net-(U201-CHANNEL_1)*%
X180200000Y-66300000D03*
%TD*%
D17*
%TO.P,R207,1*%
%TO.N,+5V*%
X231750000Y-66300000D03*
%TO.P,R207,2*%
%TO.N,Net-(U202-CHANNEL_2)*%
X230100000Y-66300000D03*
%TD*%
D18*
%TO.P,C309,1*%
%TO.N,GND*%
X102600000Y-100500000D03*
%TO.P,C309,2*%
%TO.N,+5V*%
X101050000Y-100500000D03*
%TD*%
D17*
%TO.P,R305,1*%
%TO.N,/KeyCaps/SW5*%
X174850000Y-81300000D03*
%TO.P,R305,2*%
%TO.N,GND*%
X173200000Y-81300000D03*
%TD*%
D24*
%TO.P,R201,1*%
%TO.N,Net-(U201-CHANNEL_1)*%
X183400000Y-67900000D03*
%TO.P,R201,2*%
%TO.N,/Rotary Encoders/A_RSW1*%
X183400000Y-69550000D03*
%TD*%
D17*
%TO.P,R309,1*%
%TO.N,/KeyCaps/SW9*%
X98050000Y-100500000D03*
%TO.P,R309,2*%
%TO.N,GND*%
X96400000Y-100500000D03*
%TD*%
D33*
%TO.P,J103,A1,GND*%
%TO.N,GND*%
X170050000Y-33750000D03*
%TO.P,J103,A4,VBUS*%
%TO.N,Net-(F101-Pad1)*%
X169250000Y-33750000D03*
%TO.P,J103,A5,CC1*%
%TO.N,Net-(J103-CC1)*%
X167950000Y-33750000D03*
%TO.P,J103,A6,D+*%
%TO.N,unconnected-(J103-D+-PadA6)*%
X166950000Y-33750000D03*
%TO.P,J103,A7,D-*%
%TO.N,unconnected-(J103-D--PadA7)*%
X166450000Y-33750000D03*
%TO.P,J103,A8,SBU1*%
%TO.N,unconnected-(J103-SBU1-PadA8)*%
X165450000Y-33750000D03*
%TO.P,J103,A9,VBUS*%
%TO.N,Net-(F101-Pad1)*%
X164150000Y-33750000D03*
%TO.P,J103,A12,GND*%
%TO.N,GND*%
X163350000Y-33750000D03*
%TO.P,J103,B1,GND*%
X163650000Y-33750000D03*
%TO.P,J103,B4,VBUS*%
%TO.N,Net-(F101-Pad1)*%
X164450000Y-33750000D03*
%TO.P,J103,B5,CC2*%
%TO.N,Net-(J103-CC2)*%
X164950000Y-33750000D03*
%TO.P,J103,B6,D+*%
%TO.N,unconnected-(J103-D+-PadB6)*%
X165950000Y-33750000D03*
%TO.P,J103,B7,D-*%
%TO.N,unconnected-(J103-D--PadB7)*%
X167450000Y-33750000D03*
%TO.P,J103,B8,SBU2*%
%TO.N,unconnected-(J103-SBU2-PadB8)*%
X168450000Y-33750000D03*
%TO.P,J103,B9,VBUS*%
%TO.N,Net-(F101-Pad1)*%
X168950000Y-33750000D03*
%TO.P,J103,B12,GND*%
%TO.N,GND*%
X169750000Y-33750000D03*
D34*
%TO.P,J103,S1,SHIELD*%
%TO.N,Net-(J103-SHIELD)*%
X171025000Y-33175000D03*
D35*
X171025000Y-28900000D03*
D34*
X162375000Y-33175000D03*
D35*
X162375000Y-28900000D03*
%TD*%
D17*
%TO.P,R307,1*%
%TO.N,/KeyCaps/SW7*%
X213250000Y-81300000D03*
%TO.P,R307,2*%
%TO.N,GND*%
X211600000Y-81300000D03*
%TD*%
D14*
%TO.P,SW310,1*%
%TO.N,+3.3V*%
X122575000Y-111340000D03*
%TO.P,SW310,2*%
%TO.N,/KeyCaps/SW10*%
X116225000Y-113880000D03*
D15*
%TO.P,SW310,3,VDD*%
%TO.N,+5V*%
X117850000Y-104100000D03*
%TO.P,SW310,4,DOUT*%
%TO.N,Net-(SW310-DOUT)*%
X119680000Y-104100000D03*
%TO.P,SW310,5,DIN*%
%TO.N,Net-(SW309-DOUT)*%
X117850000Y-103000000D03*
%TO.P,SW310,6,GND*%
%TO.N,GND*%
X119680000Y-103000000D03*
%TD*%
D18*
%TO.P,C304,1*%
%TO.N,GND*%
X160200000Y-81300000D03*
%TO.P,C304,2*%
%TO.N,+5V*%
X158650000Y-81300000D03*
%TD*%
D28*
%TO.P,J101,1,Pin_1*%
%TO.N,+3.3V*%
X133200000Y-30900000D03*
D29*
%TO.P,J101,2,Pin_2*%
%TO.N,/EN*%
X135740000Y-30900000D03*
%TO.P,J101,3,Pin_3*%
%TO.N,/ESP_TX*%
X138280000Y-30900000D03*
%TO.P,J101,4,Pin_4*%
%TO.N,/ESP_RX*%
X140820000Y-30900000D03*
%TO.P,J101,5,Pin_5*%
%TO.N,/IO0*%
X143360000Y-30900000D03*
%TO.P,J101,6,Pin_6*%
%TO.N,GND*%
X145900000Y-30900000D03*
%TD*%
D17*
%TO.P,R316,1*%
%TO.N,/KeyCaps/SW16*%
X232450000Y-100500000D03*
%TO.P,R316,2*%
%TO.N,GND*%
X230800000Y-100500000D03*
%TD*%
%TO.P,R304,1*%
%TO.N,/KeyCaps/SW4*%
X155650000Y-81300000D03*
%TO.P,R304,2*%
%TO.N,GND*%
X154000000Y-81300000D03*
%TD*%
%TO.P,R303,1*%
%TO.N,/KeyCaps/SW3*%
X136450000Y-81300000D03*
%TO.P,R303,2*%
%TO.N,GND*%
X134800000Y-81300000D03*
%TD*%
D18*
%TO.P,C313,1*%
%TO.N,GND*%
X179400000Y-100500000D03*
%TO.P,C313,2*%
%TO.N,+5V*%
X177850000Y-100500000D03*
%TD*%
D14*
%TO.P,SW304,1*%
%TO.N,+3.3V*%
X160975000Y-92140000D03*
%TO.P,SW304,2*%
%TO.N,/KeyCaps/SW4*%
X154625000Y-94680000D03*
D15*
%TO.P,SW304,3,VDD*%
%TO.N,+5V*%
X156250000Y-84900000D03*
%TO.P,SW304,4,DOUT*%
%TO.N,Net-(SW304-DOUT)*%
X158080000Y-84900000D03*
%TO.P,SW304,5,DIN*%
%TO.N,Net-(SW303-DOUT)*%
X156250000Y-83800000D03*
%TO.P,SW304,6,GND*%
%TO.N,GND*%
X158080000Y-83800000D03*
%TD*%
D36*
%TO.P,F101,1*%
%TO.N,Net-(F101-Pad1)*%
X166700000Y-35800000D03*
%TO.P,F101,2*%
%TO.N,+5V*%
X166700000Y-40075000D03*
%TD*%
D37*
%TO.P,L101,1*%
%TO.N,GND*%
X173000000Y-28100000D03*
%TO.P,L101,2*%
%TO.N,Net-(J103-SHIELD)*%
X173000000Y-29675000D03*
%TD*%
D17*
%TO.P,R306,1*%
%TO.N,/KeyCaps/SW6*%
X194050000Y-81300000D03*
%TO.P,R306,2*%
%TO.N,GND*%
X192400000Y-81300000D03*
%TD*%
D32*
%TO.P,R206,1*%
%TO.N,+5V*%
X217050000Y-66300000D03*
%TO.P,R206,2*%
%TO.N,Net-(U202-CHANNEL_1)*%
X218700000Y-66300000D03*
%TD*%
D24*
%TO.P,R205,1*%
%TO.N,Net-(U202-CHANNEL_1)*%
X221900000Y-67800000D03*
%TO.P,R205,2*%
%TO.N,/Rotary Encoders/A_RSW2*%
X221900000Y-69450000D03*
%TD*%
D14*
%TO.P,SW312,1*%
%TO.N,+3.3V*%
X160975000Y-111340000D03*
%TO.P,SW312,2*%
%TO.N,/KeyCaps/SW12*%
X154625000Y-113880000D03*
D15*
%TO.P,SW312,3,VDD*%
%TO.N,+5V*%
X156250000Y-104100000D03*
%TO.P,SW312,4,DOUT*%
%TO.N,Net-(SW312-DOUT)*%
X158080000Y-104100000D03*
%TO.P,SW312,5,DIN*%
%TO.N,Net-(SW311-DOUT)*%
X156250000Y-103000000D03*
%TO.P,SW312,6,GND*%
%TO.N,GND*%
X158080000Y-103000000D03*
%TD*%
D25*
%TO.P,C203,1*%
%TO.N,Net-(U202-CHANNEL_1)*%
X220300000Y-67800000D03*
%TO.P,C203,2*%
%TO.N,GND*%
X220300000Y-69350000D03*
%TD*%
D18*
%TO.P,C310,1*%
%TO.N,GND*%
X121800000Y-100500000D03*
%TO.P,C310,2*%
%TO.N,+5V*%
X120250000Y-100500000D03*
%TD*%
D25*
%TO.P,C204,1*%
%TO.N,Net-(U202-CHANNEL_2)*%
X228500000Y-67800000D03*
%TO.P,C204,2*%
%TO.N,GND*%
X228500000Y-69350000D03*
%TD*%
D14*
%TO.P,SW308,1*%
%TO.N,+3.3V*%
X237775000Y-92140000D03*
%TO.P,SW308,2*%
%TO.N,/KeyCaps/SW8*%
X231425000Y-94680000D03*
D15*
%TO.P,SW308,3,VDD*%
%TO.N,+5V*%
X233050000Y-84900000D03*
%TO.P,SW308,4,DOUT*%
%TO.N,Net-(SW308-DOUT)*%
X234880000Y-84900000D03*
%TO.P,SW308,5,DIN*%
%TO.N,Net-(SW307-DOUT)*%
X233050000Y-83800000D03*
%TO.P,SW308,6,GND*%
%TO.N,GND*%
X234880000Y-83800000D03*
%TD*%
D17*
%TO.P,R302,1*%
%TO.N,/KeyCaps/SW2*%
X117250000Y-81300000D03*
%TO.P,R302,2*%
%TO.N,GND*%
X115600000Y-81300000D03*
%TD*%
D16*
%TO.P,R103,1*%
%TO.N,GND*%
X173000000Y-34050000D03*
%TO.P,R103,2*%
%TO.N,Net-(J103-CC1)*%
X173000000Y-32400000D03*
%TD*%
D17*
%TO.P,R301,1*%
%TO.N,/KeyCaps/SW1*%
X98050000Y-81300000D03*
%TO.P,R301,2*%
%TO.N,GND*%
X96400000Y-81300000D03*
%TD*%
D18*
%TO.P,C315,1*%
%TO.N,GND*%
X217800000Y-100500000D03*
%TO.P,C315,2*%
%TO.N,+5V*%
X216250000Y-100500000D03*
%TD*%
D14*
%TO.P,SW313,1*%
%TO.N,+3.3V*%
X180175000Y-111340000D03*
%TO.P,SW313,2*%
%TO.N,/KeyCaps/SW13*%
X173825000Y-113880000D03*
D15*
%TO.P,SW313,3,VDD*%
%TO.N,+5V*%
X175450000Y-104100000D03*
%TO.P,SW313,4,DOUT*%
%TO.N,Net-(SW313-DOUT)*%
X177280000Y-104100000D03*
%TO.P,SW313,5,DIN*%
%TO.N,Net-(SW312-DOUT)*%
X175450000Y-103000000D03*
%TO.P,SW313,6,GND*%
%TO.N,GND*%
X177280000Y-103000000D03*
%TD*%
D38*
%TO.N,/EN*%
X107800000Y-37100000D03*
%TO.N,GND*%
X152800000Y-100500000D03*
X160400000Y-35300000D03*
X102600000Y-83800000D03*
X161300000Y-79000000D03*
X210400000Y-81300000D03*
X217800000Y-103000000D03*
X160200000Y-83800000D03*
X173000000Y-35300000D03*
X172000000Y-81300000D03*
X172200000Y-73800000D03*
X174400000Y-28100000D03*
X181800000Y-70900000D03*
X179400000Y-83800000D03*
X153800000Y-36400000D03*
X162000000Y-36700000D03*
X170100000Y-35400000D03*
X162000000Y-35400000D03*
X141000000Y-103000000D03*
X228500000Y-70800000D03*
X125400000Y-34600000D03*
X133600000Y-100500000D03*
X179400000Y-103000000D03*
X152800000Y-81300000D03*
X114400000Y-81300000D03*
X191200000Y-81300000D03*
X163300000Y-36700000D03*
X171400000Y-36700000D03*
X121800000Y-103000000D03*
X141000000Y-83800000D03*
X149300000Y-30000000D03*
X237000000Y-83800000D03*
X171400000Y-35400000D03*
X237000000Y-103000000D03*
X162400000Y-38900000D03*
X133600000Y-81300000D03*
X102900000Y-40300000D03*
X220300000Y-70800000D03*
X161300000Y-72800000D03*
X210400000Y-100500000D03*
X198600000Y-103000000D03*
X172000000Y-100500000D03*
X198600000Y-83800000D03*
X104400000Y-34500000D03*
X163300000Y-35400000D03*
X95200000Y-81300000D03*
X170600000Y-43500000D03*
X121800000Y-83800000D03*
X190000000Y-70900000D03*
X172200000Y-45200000D03*
X109300000Y-54000000D03*
X229600000Y-100500000D03*
X229600000Y-81300000D03*
X114400000Y-100500000D03*
X160200000Y-103000000D03*
X170100000Y-36700000D03*
X217800000Y-83800000D03*
X191200000Y-100500000D03*
X95200000Y-100500000D03*
X102600000Y-103000000D03*
%TO.N,+3.3V*%
X150800000Y-36400000D03*
X171900000Y-47500000D03*
X171900000Y-46600000D03*
X172800000Y-46600000D03*
X101300000Y-40400000D03*
X156700000Y-36400000D03*
X172200000Y-71800000D03*
X99900000Y-35900000D03*
X172800000Y-47500000D03*
X171000000Y-46600000D03*
X171000000Y-47500000D03*
%TO.N,+5V*%
X194700000Y-105300000D03*
X118800000Y-100500000D03*
X98700000Y-105300000D03*
X164000000Y-61300000D03*
X194700000Y-86100000D03*
X156300000Y-105300000D03*
X156300000Y-86100000D03*
X137100000Y-105300000D03*
X168000000Y-41400000D03*
X234000000Y-81300000D03*
X169300000Y-42900000D03*
X195600000Y-81300000D03*
X117900000Y-105300000D03*
X176400000Y-81300000D03*
X137100000Y-86100000D03*
X166700000Y-41400000D03*
X157200000Y-81300000D03*
X213900000Y-86100000D03*
X164100000Y-42900000D03*
X169400000Y-66300000D03*
X98700000Y-86100000D03*
X176400000Y-100500000D03*
X194600000Y-66300000D03*
X157200000Y-100500000D03*
X233100000Y-105300000D03*
X214800000Y-81300000D03*
X195600000Y-100500000D03*
X213900000Y-105300000D03*
X234000000Y-100500000D03*
X138000000Y-81300000D03*
X214800000Y-100500000D03*
X165400000Y-41400000D03*
X138000000Y-100500000D03*
X99600000Y-81300000D03*
X175500000Y-86100000D03*
X233100000Y-66300000D03*
X164100000Y-40100000D03*
X169300000Y-41400000D03*
X117900000Y-86100000D03*
X99600000Y-100500000D03*
X177200000Y-66300000D03*
X215700000Y-66300000D03*
X169300000Y-40100000D03*
X233100000Y-86100000D03*
X175500000Y-105300000D03*
X118800000Y-81300000D03*
%TO.N,/ESP_TX*%
X155300000Y-30000000D03*
X125400000Y-38400000D03*
%TO.N,/ESP_RX*%
X125400000Y-39700000D03*
%TO.N,/IO0*%
X125400000Y-51100000D03*
%TO.N,/OLED_CS*%
X101000000Y-54100000D03*
X101000000Y-51300000D03*
%TO.N,/OLED_DC*%
X103300000Y-44760000D03*
X104700000Y-44760000D03*
%TO.N,/Rotary Encoders/A_RSW1*%
X127270000Y-48570000D03*
X183400000Y-70900000D03*
%TO.N,/Rotary Encoders/B_RSW1*%
X107900000Y-46000000D03*
X188400000Y-70900000D03*
%TO.N,/Rotary Encoders/A_RSW2*%
X221900000Y-70800000D03*
X127300000Y-47300000D03*
%TO.N,/Rotary Encoders/B_RSW2*%
X226900000Y-70800000D03*
X107900000Y-47300000D03*
%TO.N,/KeyCaps/SW1*%
X97000000Y-83075000D03*
X97000000Y-84525000D03*
%TO.N,/KeyCaps/SW2*%
X116200000Y-83075000D03*
X116225000Y-85900000D03*
%TO.N,/KeyCaps/SW3*%
X135425000Y-85900000D03*
X135400000Y-83075000D03*
%TO.N,/KeyCaps/SW4*%
X154600000Y-83075000D03*
X154625000Y-85900000D03*
%TO.N,/KeyCaps/SW5*%
X173825000Y-85900000D03*
X173800000Y-83075000D03*
%TO.N,/KeyCaps/SW6*%
X193000000Y-83075000D03*
X193025000Y-85900000D03*
%TO.N,/KeyCaps/SW7*%
X212200000Y-83075000D03*
X212225000Y-85900000D03*
%TO.N,/KeyCaps/SW8*%
X231425000Y-85900000D03*
X231400000Y-83075000D03*
%TO.N,/KeyCaps/SW9*%
X97000000Y-103725000D03*
X97000000Y-102275000D03*
%TO.N,/KeyCaps/SW10*%
X116200000Y-102275000D03*
X116225000Y-104900000D03*
%TO.N,/KeyCaps/SW11*%
X135425000Y-104900000D03*
X135400000Y-102275000D03*
%TO.N,/KeyCaps/SW12*%
X154625000Y-104900000D03*
X154600000Y-102275000D03*
%TO.N,/KeyCaps/SW13*%
X173825000Y-105000000D03*
X173800000Y-102275000D03*
%TO.N,/KeyCaps/SW14*%
X193000000Y-102275000D03*
X193025000Y-104900000D03*
%TO.N,/KeyCaps/SW15*%
X212200000Y-102275000D03*
X212225000Y-104900000D03*
%TO.N,/KeyCaps/SW16*%
X231400000Y-102275000D03*
X231425000Y-104900000D03*
%TO.N,/LED_DATA*%
X103400000Y-54500000D03*
X103400000Y-52100000D03*
%TO.N,Net-(SW304-DOUT)*%
X169900000Y-83800000D03*
X163600000Y-84900000D03*
%TO.N,Net-(SW308-DOUT)*%
X95062431Y-103045396D03*
X240100000Y-103000000D03*
%TO.N,/HA_STATUS*%
X152400000Y-30000000D03*
X119400000Y-54100000D03*
%TO.N,/Rotary Encoders/SW_RSW2*%
X133400000Y-53100000D03*
X104500000Y-52100000D03*
X104500000Y-54500000D03*
X161800000Y-53100000D03*
%TO.N,/Rotary Encoders/SW_RSW1*%
X160700000Y-52000000D03*
X132300000Y-52000000D03*
%TD*%
D39*
%TO.N,+3.3V*%
X156700000Y-35050000D02*
X156700000Y-36400000D01*
D40*
%TO.N,GND*%
X153800000Y-35050000D02*
X153800000Y-36400000D01*
D39*
%TO.N,+3.3V*%
X150800000Y-35050000D02*
X150800000Y-36400000D01*
D40*
%TO.N,Net-(D103-A)*%
X156700000Y-33400000D02*
X156700000Y-31837500D01*
%TO.N,Net-(D102-K)*%
X153800000Y-33400000D02*
X153800000Y-31837500D01*
%TO.N,Net-(D101-A)*%
X150800000Y-33400000D02*
X150800000Y-31837500D01*
%TO.N,GND*%
X149300000Y-30000000D02*
X150762500Y-30000000D01*
X150762500Y-30000000D02*
X150800000Y-29962500D01*
%TO.N,/HA_STATUS*%
X152400000Y-30000000D02*
X153762500Y-30000000D01*
X153762500Y-30000000D02*
X153800000Y-29962500D01*
%TO.N,/ESP_TX*%
X155300000Y-30000000D02*
X156662500Y-30000000D01*
X156662500Y-30000000D02*
X156700000Y-29962500D01*
%TO.N,/EN*%
X104300000Y-37400000D02*
X102900000Y-37400000D01*
X101300000Y-37400000D02*
X102900000Y-37400000D01*
X104560000Y-37140000D02*
X104300000Y-37400000D01*
X106200000Y-37140000D02*
X104560000Y-37140000D01*
X107760000Y-37140000D02*
X107800000Y-37100000D01*
X106200000Y-37140000D02*
X107760000Y-37140000D01*
%TO.N,GND*%
X96400000Y-81300000D02*
X95200000Y-81300000D01*
X133600000Y-100500000D02*
X134800000Y-100500000D01*
X109240000Y-53940000D02*
X109300000Y-54000000D01*
X229600000Y-81300000D02*
X230800000Y-81300000D01*
X104250000Y-34350000D02*
X104400000Y-34500000D01*
X179400000Y-100500000D02*
X179400000Y-103000000D01*
X163321000Y-72475000D02*
X161625000Y-72475000D01*
X141000000Y-81300000D02*
X141000000Y-83800000D01*
X102900000Y-38950000D02*
X102900000Y-40300000D01*
X177280000Y-103000000D02*
X179400000Y-103000000D01*
X163321000Y-73124998D02*
X161624998Y-73124998D01*
X133600000Y-81300000D02*
X134800000Y-81300000D01*
X191200000Y-81300000D02*
X192400000Y-81300000D01*
X163321000Y-78974999D02*
X161325001Y-78974999D01*
X191200000Y-100500000D02*
X192400000Y-100500000D01*
X119680000Y-83800000D02*
X121800000Y-83800000D01*
X138880000Y-103000000D02*
X141000000Y-103000000D01*
X229600000Y-100500000D02*
X230800000Y-100500000D01*
X198600000Y-100500000D02*
X198600000Y-103000000D01*
X161325001Y-78974999D02*
X161300000Y-79000000D01*
X114400000Y-100500000D02*
X115600000Y-100500000D01*
X160200000Y-100500000D02*
X160200000Y-103000000D01*
X215680000Y-83800000D02*
X217800000Y-83800000D01*
X102900000Y-34350000D02*
X104250000Y-34350000D01*
X161625000Y-72475000D02*
X161300000Y-72800000D01*
X104500000Y-34600000D02*
X104400000Y-34500000D01*
X121800000Y-81300000D02*
X121800000Y-83800000D01*
X101300000Y-34350000D02*
X102900000Y-34350000D01*
X198600000Y-81300000D02*
X198600000Y-83800000D01*
X152800000Y-100500000D02*
X154000000Y-100500000D01*
X179400000Y-81300000D02*
X179400000Y-83800000D01*
X177280000Y-83800000D02*
X179400000Y-83800000D01*
X172000000Y-100500000D02*
X173200000Y-100500000D01*
X95200000Y-100500000D02*
X96400000Y-100500000D01*
X172000000Y-81300000D02*
X173200000Y-81300000D01*
X237000000Y-81300000D02*
X237000000Y-83800000D01*
X173000000Y-34050000D02*
X173000000Y-35300000D01*
X210400000Y-81300000D02*
X211600000Y-81300000D01*
X234880000Y-103000000D02*
X237000000Y-103000000D01*
X158080000Y-83800000D02*
X160200000Y-83800000D01*
X106200000Y-34600000D02*
X104500000Y-34600000D01*
X190000000Y-69450000D02*
X190000000Y-70900000D01*
X170179000Y-73775002D02*
X172175002Y-73775002D01*
X121800000Y-100500000D02*
X121800000Y-103000000D01*
X114400000Y-81300000D02*
X115600000Y-81300000D01*
X210400000Y-100500000D02*
X211600000Y-100500000D01*
X172175002Y-73775002D02*
X172200000Y-73800000D01*
X119680000Y-103000000D02*
X121800000Y-103000000D01*
X161624998Y-73124998D02*
X161300000Y-72800000D01*
X220300000Y-69350000D02*
X220300000Y-70800000D01*
X173000000Y-28100000D02*
X174400000Y-28100000D01*
X102600000Y-83800000D02*
X102600000Y-81300000D01*
X109240000Y-52360000D02*
X109240000Y-53940000D01*
X152800000Y-81300000D02*
X154000000Y-81300000D01*
X160200000Y-81300000D02*
X160200000Y-83800000D01*
X158080000Y-103000000D02*
X160200000Y-103000000D01*
X196480000Y-103000000D02*
X198600000Y-103000000D01*
X217800000Y-100500000D02*
X217800000Y-103000000D01*
X170850000Y-45200000D02*
X172200000Y-45200000D01*
X138880000Y-83800000D02*
X141000000Y-83800000D01*
X170087500Y-44012500D02*
X167012500Y-44012500D01*
X100480000Y-103000000D02*
X102600000Y-103000000D01*
X162350000Y-41400000D02*
X162350000Y-38950000D01*
X237000000Y-100500000D02*
X237000000Y-103000000D01*
X167012500Y-44012500D02*
X166750000Y-43750000D01*
X170600000Y-43500000D02*
X170087500Y-44012500D01*
X141000000Y-100500000D02*
X141000000Y-103000000D01*
X215680000Y-103000000D02*
X217800000Y-103000000D01*
X234880000Y-83800000D02*
X237000000Y-83800000D01*
X102600000Y-100500000D02*
X102600000Y-103000000D01*
X217800000Y-81300000D02*
X217800000Y-83800000D01*
X181800000Y-69450000D02*
X181800000Y-70900000D01*
X162350000Y-38950000D02*
X162400000Y-38900000D01*
X166750000Y-43750000D02*
X166750000Y-42900000D01*
X160400000Y-34050000D02*
X160400000Y-35300000D01*
X196480000Y-83800000D02*
X198600000Y-83800000D01*
X228500000Y-69350000D02*
X228500000Y-70800000D01*
X100480000Y-83800000D02*
X102600000Y-83800000D01*
X123700000Y-34600000D02*
X125400000Y-34600000D01*
D39*
%TO.N,+3.3V*%
X167700000Y-45175000D02*
X169275000Y-45175000D01*
D40*
X172174999Y-71825001D02*
X172200000Y-71800000D01*
D39*
X169275000Y-45175000D02*
X169300000Y-45200000D01*
X101300000Y-35900000D02*
X99900000Y-35900000D01*
X102930000Y-35870000D02*
X102900000Y-35900000D01*
X102900000Y-35900000D02*
X101300000Y-35900000D01*
X106200000Y-35870000D02*
X102930000Y-35870000D01*
X101300000Y-39050000D02*
X101300000Y-40400000D01*
D40*
X170179000Y-71825001D02*
X172174999Y-71825001D01*
D39*
%TO.N,+5V*%
X175450000Y-84900000D02*
X175450000Y-86050000D01*
X177850000Y-100500000D02*
X176400000Y-100500000D01*
X117850000Y-86050000D02*
X117900000Y-86100000D01*
X175450000Y-86050000D02*
X175500000Y-86100000D01*
X233050000Y-86050000D02*
X233100000Y-86100000D01*
X101050000Y-100500000D02*
X99600000Y-100500000D01*
X231750000Y-66300000D02*
X233100000Y-66300000D01*
X194650000Y-86050000D02*
X194700000Y-86100000D01*
X175450000Y-105250000D02*
X175500000Y-105300000D01*
X101050000Y-81300000D02*
X99600000Y-81300000D01*
X216250000Y-100500000D02*
X214800000Y-100500000D01*
X233050000Y-84900000D02*
X233050000Y-86050000D01*
X235450000Y-81300000D02*
X234000000Y-81300000D01*
X158650000Y-81300000D02*
X157200000Y-81300000D01*
X98650000Y-104100000D02*
X98650000Y-105250000D01*
X213850000Y-84900000D02*
X213850000Y-86050000D01*
X235450000Y-100500000D02*
X234000000Y-100500000D01*
X98650000Y-84900000D02*
X98650000Y-86050000D01*
X137050000Y-104100000D02*
X137050000Y-105250000D01*
X98650000Y-105250000D02*
X98700000Y-105300000D01*
X233050000Y-104100000D02*
X233050000Y-105250000D01*
X139450000Y-81300000D02*
X138000000Y-81300000D01*
X120250000Y-81300000D02*
X118800000Y-81300000D01*
X194650000Y-84900000D02*
X194650000Y-86050000D01*
X216250000Y-81300000D02*
X214800000Y-81300000D01*
X156250000Y-105250000D02*
X156300000Y-105300000D01*
X137050000Y-86050000D02*
X137100000Y-86100000D01*
X117850000Y-84900000D02*
X117850000Y-86050000D01*
X139450000Y-100500000D02*
X138000000Y-100500000D01*
X197050000Y-100500000D02*
X195600000Y-100500000D01*
X194650000Y-104100000D02*
X194650000Y-105250000D01*
X213850000Y-86050000D02*
X213900000Y-86100000D01*
X137050000Y-105250000D02*
X137100000Y-105300000D01*
X213850000Y-105250000D02*
X213900000Y-105300000D01*
X193250000Y-66300000D02*
X194600000Y-66300000D01*
X156250000Y-104100000D02*
X156250000Y-105250000D01*
X178550000Y-66300000D02*
X177200000Y-66300000D01*
X217050000Y-66300000D02*
X215700000Y-66300000D01*
X158650000Y-100500000D02*
X157200000Y-100500000D01*
X120250000Y-100500000D02*
X118800000Y-100500000D01*
X175450000Y-104100000D02*
X175450000Y-105250000D01*
X197050000Y-81300000D02*
X195600000Y-81300000D01*
X137050000Y-84900000D02*
X137050000Y-86050000D01*
X117850000Y-105250000D02*
X117900000Y-105300000D01*
X156250000Y-86050000D02*
X156300000Y-86100000D01*
X177850000Y-81300000D02*
X176400000Y-81300000D01*
X233050000Y-105250000D02*
X233100000Y-105300000D01*
X156250000Y-84900000D02*
X156250000Y-86050000D01*
X98650000Y-86050000D02*
X98700000Y-86100000D01*
X213850000Y-104100000D02*
X213850000Y-105250000D01*
X117850000Y-104100000D02*
X117850000Y-105250000D01*
X194650000Y-105250000D02*
X194700000Y-105300000D01*
D40*
%TO.N,/ESP_TX*%
X125390000Y-38410000D02*
X125400000Y-38400000D01*
X156675000Y-30100000D02*
X156700000Y-30125000D01*
X123700000Y-38410000D02*
X125390000Y-38410000D01*
%TO.N,/ESP_RX*%
X123700000Y-39680000D02*
X125380000Y-39680000D01*
X125380000Y-39680000D02*
X125400000Y-39700000D01*
%TO.N,/IO0*%
X123700000Y-51110000D02*
X125390000Y-51110000D01*
X125390000Y-51110000D02*
X125400000Y-51100000D01*
%TO.N,/OLED_CS*%
X94000000Y-48600000D02*
X92800000Y-48600000D01*
X100600000Y-51700000D02*
X97100000Y-51700000D01*
X108300000Y-51500000D02*
X113770000Y-46030000D01*
X108300000Y-51941372D02*
X108300000Y-51500000D01*
X101000000Y-51300000D02*
X100600000Y-51700000D01*
X101000000Y-54100000D02*
X101400000Y-53700000D01*
X101400000Y-53700000D02*
X106541372Y-53700000D01*
X106541372Y-53700000D02*
X108300000Y-51941372D01*
X113770000Y-46030000D02*
X123700000Y-46030000D01*
X97100000Y-51700000D02*
X94000000Y-48600000D01*
%TO.N,/OLED_DC*%
X93780000Y-52100000D02*
X92820000Y-51140000D01*
X103300000Y-45184264D02*
X101900000Y-46584265D01*
X103300000Y-44760000D02*
X103300000Y-45184264D01*
X101900000Y-51634314D02*
X101434314Y-52100000D01*
X104700000Y-44760000D02*
X106200000Y-44760000D01*
X101434314Y-52100000D02*
X93780000Y-52100000D01*
X101900000Y-46584265D02*
X101900000Y-51634314D01*
X92820000Y-51140000D02*
X92800000Y-51140000D01*
%TO.N,/OLED_RESET*%
X106200000Y-43490000D02*
X104980050Y-43490000D01*
X104000000Y-44470050D02*
X104000000Y-45049950D01*
X104980050Y-43490000D02*
X104000000Y-44470050D01*
X101600000Y-52500000D02*
X93980000Y-52500000D01*
X93980000Y-52500000D02*
X92800000Y-53680000D01*
X104000000Y-45049950D02*
X102300000Y-46749950D01*
X102300000Y-51800000D02*
X101600000Y-52500000D01*
X102300000Y-46749950D02*
X102300000Y-51800000D01*
%TO.N,/OLED_MOSI*%
X92800000Y-56220000D02*
X96120000Y-52900000D01*
X106210000Y-52900000D02*
X107500000Y-51610000D01*
X122500000Y-44200000D02*
X122500000Y-36120000D01*
X107500000Y-51168630D02*
X113438630Y-45230000D01*
X113438630Y-45230000D02*
X121470000Y-45230000D01*
X122750000Y-35870000D02*
X123700000Y-35870000D01*
X107500000Y-51610000D02*
X107500000Y-51168630D01*
X96120000Y-52900000D02*
X106210000Y-52900000D01*
X122500000Y-36120000D02*
X122750000Y-35870000D01*
X121470000Y-45230000D02*
X122500000Y-44200000D01*
%TO.N,/OLED_SCL*%
X92800000Y-58760000D02*
X94800000Y-56760000D01*
X94800000Y-56760000D02*
X94800000Y-54785686D01*
X107900000Y-51775686D02*
X107900000Y-51334315D01*
X113604315Y-45630000D02*
X121670000Y-45630000D01*
X107900000Y-51334315D02*
X113604315Y-45630000D01*
X122540000Y-44760000D02*
X123700000Y-44760000D01*
X106375686Y-53300000D02*
X107900000Y-51775686D01*
X94800000Y-54785686D02*
X96285686Y-53300000D01*
X96285686Y-53300000D02*
X106375686Y-53300000D01*
X121670000Y-45630000D02*
X122540000Y-44760000D01*
%TO.N,/Rotary Encoders/A_RSW1*%
X183400000Y-70900000D02*
X183400000Y-69550000D01*
X127270000Y-48570000D02*
X123700000Y-48570000D01*
%TO.N,/Rotary Encoders/B_RSW1*%
X106200000Y-46030000D02*
X107870000Y-46030000D01*
X107870000Y-46030000D02*
X107900000Y-46000000D01*
X188400000Y-70900000D02*
X188400000Y-69550000D01*
%TO.N,/Rotary Encoders/A_RSW2*%
X221900000Y-70800000D02*
X221900000Y-69450000D01*
X123700000Y-47300000D02*
X127300000Y-47300000D01*
%TO.N,/Rotary Encoders/B_RSW2*%
X106200000Y-47300000D02*
X107900000Y-47300000D01*
X226900000Y-70800000D02*
X226900000Y-69450000D01*
D41*
%TO.N,/KeyCaps/SW1*%
X97025000Y-84550000D02*
X97000000Y-84525000D01*
X97025000Y-94680000D02*
X97025000Y-84550000D01*
X154790812Y-78900000D02*
X99600000Y-78900000D01*
X98050000Y-80450000D02*
X98050000Y-81300000D01*
X97000000Y-83075000D02*
X97025000Y-83075000D01*
X98050000Y-82050000D02*
X98050000Y-81300000D01*
X163321000Y-73774999D02*
X159915813Y-73774999D01*
X99600000Y-78900000D02*
X98050000Y-80450000D01*
X97025000Y-83075000D02*
X98050000Y-82050000D01*
X159915813Y-73774999D02*
X154790812Y-78900000D01*
%TO.N,/KeyCaps/SW2*%
X117250000Y-82150000D02*
X117250000Y-81300000D01*
X159902210Y-74424998D02*
X154977208Y-79350000D01*
X154977208Y-79350000D02*
X118350000Y-79350000D01*
X117250000Y-80450000D02*
X117250000Y-81300000D01*
X163321000Y-74424998D02*
X159902210Y-74424998D01*
X116225000Y-85900000D02*
X116225000Y-94680000D01*
X116200000Y-83075000D02*
X116325000Y-83075000D01*
X118350000Y-79350000D02*
X117250000Y-80450000D01*
X116325000Y-83075000D02*
X117250000Y-82150000D01*
%TO.N,/KeyCaps/SW3*%
X137100000Y-79800000D02*
X136450000Y-80450000D01*
X159888605Y-75074999D02*
X155163604Y-79800000D01*
X135425000Y-85900000D02*
X135425000Y-94680000D01*
X155163604Y-79800000D02*
X137100000Y-79800000D01*
X136450000Y-82150000D02*
X136450000Y-81300000D01*
X136450000Y-80450000D02*
X136450000Y-81300000D01*
X135525000Y-83075000D02*
X136450000Y-82150000D01*
X163321000Y-75074999D02*
X159888605Y-75074999D01*
X135400000Y-83075000D02*
X135525000Y-83075000D01*
%TO.N,/KeyCaps/SW4*%
X163321000Y-75724998D02*
X159875002Y-75724998D01*
X154725000Y-83075000D02*
X155650000Y-82150000D01*
X154625000Y-85900000D02*
X154625000Y-94680000D01*
X155650000Y-79950000D02*
X155650000Y-81300000D01*
X155650000Y-82150000D02*
X155650000Y-81300000D01*
X159875002Y-75724998D02*
X155650000Y-79950000D01*
X154600000Y-83075000D02*
X154725000Y-83075000D01*
%TO.N,/KeyCaps/SW5*%
X174850000Y-79550000D02*
X174850000Y-81300000D01*
X173925000Y-83075000D02*
X174850000Y-82150000D01*
X174850000Y-82150000D02*
X174850000Y-81300000D01*
X171674999Y-76374999D02*
X174850000Y-79550000D01*
X173800000Y-83075000D02*
X173925000Y-83075000D01*
X173825000Y-85900000D02*
X173825000Y-94680000D01*
X171674999Y-76374999D02*
X170179000Y-76374999D01*
%TO.N,/KeyCaps/SW6*%
X170179000Y-75725001D02*
X171661397Y-75725001D01*
X193125000Y-83075000D02*
X194050000Y-82150000D01*
X193300000Y-79700000D02*
X194050000Y-80450000D01*
X193000000Y-83075000D02*
X193125000Y-83075000D01*
X171661397Y-75725001D02*
X175636396Y-79700000D01*
X175636396Y-79700000D02*
X193300000Y-79700000D01*
X194050000Y-82150000D02*
X194050000Y-81300000D01*
X193025000Y-85900000D02*
X193025000Y-94680000D01*
X194050000Y-80450000D02*
X194050000Y-81300000D01*
%TO.N,/KeyCaps/SW7*%
X212225000Y-85900000D02*
X212225000Y-94680000D01*
X170179000Y-75075002D02*
X171647794Y-75075002D01*
X212050000Y-79250000D02*
X213250000Y-80450000D01*
X213250000Y-82150000D02*
X213250000Y-81300000D01*
X171647794Y-75075002D02*
X175822792Y-79250000D01*
X175822792Y-79250000D02*
X212050000Y-79250000D01*
X213250000Y-80450000D02*
X213250000Y-81300000D01*
X212325000Y-83075000D02*
X213250000Y-82150000D01*
X212200000Y-83075000D02*
X212325000Y-83075000D01*
%TO.N,/KeyCaps/SW8*%
X231425000Y-85900000D02*
X231425000Y-94680000D01*
X176009188Y-78800000D02*
X230800000Y-78800000D01*
X230800000Y-78800000D02*
X232450000Y-80450000D01*
X170179000Y-74425001D02*
X171634189Y-74425001D01*
X171634189Y-74425001D02*
X176009188Y-78800000D01*
X231400000Y-83075000D02*
X231525000Y-83075000D01*
X232450000Y-80450000D02*
X232450000Y-81300000D01*
X232450000Y-82150000D02*
X232450000Y-81300000D01*
X231525000Y-83075000D02*
X232450000Y-82150000D01*
%TO.N,/KeyCaps/SW9*%
X100150000Y-97550000D02*
X98050000Y-99650000D01*
X98050000Y-101350000D02*
X98050000Y-100500000D01*
X97000000Y-102275000D02*
X97125000Y-102275000D01*
X97125000Y-102275000D02*
X98050000Y-101350000D01*
X165250000Y-96840812D02*
X164540812Y-97550000D01*
X165250000Y-78922897D02*
X165250000Y-96840812D01*
X163321000Y-78324998D02*
X164652101Y-78324998D01*
X98050000Y-99650000D02*
X98050000Y-100500000D01*
X97025000Y-103750000D02*
X97000000Y-103725000D01*
X164652101Y-78324998D02*
X165250000Y-78922897D01*
X97025000Y-113880000D02*
X97025000Y-103750000D01*
X164540812Y-97550000D02*
X100150000Y-97550000D01*
%TO.N,/KeyCaps/SW10*%
X164638498Y-77674999D02*
X165700000Y-78736501D01*
X116200000Y-102275000D02*
X116325000Y-102275000D01*
X163321000Y-77674999D02*
X164638498Y-77674999D01*
X165700000Y-97027208D02*
X164727208Y-98000000D01*
X118900000Y-98000000D02*
X117250000Y-99650000D01*
X117250000Y-99650000D02*
X117250000Y-100500000D01*
X116325000Y-102275000D02*
X117250000Y-101350000D01*
X164727208Y-98000000D02*
X118900000Y-98000000D01*
X117250000Y-101350000D02*
X117250000Y-100500000D01*
X116225000Y-104900000D02*
X116225000Y-113880000D01*
X165700000Y-78736501D02*
X165700000Y-97027208D01*
%TO.N,/KeyCaps/SW11*%
X137650000Y-98450000D02*
X136450000Y-99650000D01*
X164624893Y-77024998D02*
X166150000Y-78550105D01*
X163321000Y-77024998D02*
X164624893Y-77024998D01*
X135425000Y-104900000D02*
X135425000Y-113880000D01*
X166150000Y-97213604D02*
X164913604Y-98450000D01*
X136450000Y-99650000D02*
X136450000Y-100500000D01*
X135525000Y-102275000D02*
X136450000Y-101350000D01*
X136450000Y-101350000D02*
X136450000Y-100500000D01*
X166150000Y-78550105D02*
X166150000Y-97213604D01*
X135400000Y-102275000D02*
X135525000Y-102275000D01*
X164913604Y-98450000D02*
X137650000Y-98450000D01*
%TO.N,/KeyCaps/SW12*%
X166600000Y-78363709D02*
X166600000Y-97400000D01*
X154725000Y-102275000D02*
X155650000Y-101350000D01*
X155650000Y-101350000D02*
X155650000Y-100500000D01*
X166600000Y-97400000D02*
X165100000Y-98900000D01*
X156400000Y-98900000D02*
X155650000Y-99650000D01*
X164611290Y-76374999D02*
X166600000Y-78363709D01*
X154625000Y-104900000D02*
X154625000Y-113880000D01*
X155650000Y-99650000D02*
X155650000Y-100500000D01*
X165100000Y-98900000D02*
X156400000Y-98900000D01*
X163321000Y-76374999D02*
X164611290Y-76374999D01*
X154600000Y-102275000D02*
X154725000Y-102275000D01*
%TO.N,/KeyCaps/SW13*%
X173825000Y-105000000D02*
X173825000Y-113880000D01*
X174100000Y-98900000D02*
X174850000Y-99650000D01*
X173800000Y-102275000D02*
X173925000Y-102275000D01*
X174850000Y-101350000D02*
X174850000Y-100500000D01*
X174850000Y-99650000D02*
X174850000Y-100500000D01*
X167050000Y-97450000D02*
X168500000Y-98900000D01*
X167050000Y-78821660D02*
X167050000Y-97450000D01*
X168846659Y-77025001D02*
X167050000Y-78821660D01*
X168500000Y-98900000D02*
X174100000Y-98900000D01*
X168846659Y-77025001D02*
X170179000Y-77025001D01*
X173925000Y-102275000D02*
X174850000Y-101350000D01*
%TO.N,/KeyCaps/SW14*%
X193125000Y-102275000D02*
X194050000Y-101350000D01*
X168833057Y-77674999D02*
X167500000Y-79008056D01*
X193025000Y-104900000D02*
X193025000Y-113880000D01*
X167500000Y-79008056D02*
X167500000Y-97263604D01*
X194050000Y-99650000D02*
X194050000Y-100500000D01*
X170179000Y-77674999D02*
X168833057Y-77674999D01*
X193000000Y-102275000D02*
X193125000Y-102275000D01*
X192850000Y-98450000D02*
X194050000Y-99650000D01*
X167500000Y-97263604D02*
X168686396Y-98450000D01*
X168686396Y-98450000D02*
X192850000Y-98450000D01*
X194050000Y-101350000D02*
X194050000Y-100500000D01*
%TO.N,/KeyCaps/SW15*%
X212200000Y-102275000D02*
X212325000Y-102275000D01*
X168872792Y-98000000D02*
X211600000Y-98000000D01*
X212325000Y-102275000D02*
X213250000Y-101350000D01*
X167950000Y-97077208D02*
X168872792Y-98000000D01*
X213250000Y-99650000D02*
X213250000Y-100500000D01*
X168819452Y-78325000D02*
X167950000Y-79194452D01*
X211600000Y-98000000D02*
X213250000Y-99650000D01*
X212225000Y-104900000D02*
X212225000Y-113880000D01*
X213250000Y-101350000D02*
X213250000Y-100500000D01*
X167950000Y-79194452D02*
X167950000Y-97077208D01*
X170179000Y-78325000D02*
X168819452Y-78325000D01*
%TO.N,/KeyCaps/SW16*%
X231400000Y-102275000D02*
X231525000Y-102275000D01*
X231425000Y-104900000D02*
X231425000Y-113880000D01*
X232450000Y-101350000D02*
X232450000Y-100500000D01*
X169059188Y-97550000D02*
X229500000Y-97550000D01*
X229500000Y-97550000D02*
X232450000Y-100500000D01*
X168805849Y-78974999D02*
X168400000Y-79380848D01*
X168400000Y-96890812D02*
X169059188Y-97550000D01*
X170179000Y-78974999D02*
X168805849Y-78974999D01*
X231525000Y-102275000D02*
X232450000Y-101350000D01*
X168400000Y-79380848D02*
X168400000Y-96890812D01*
D40*
%TO.N,/I2C_SDA*%
X173200000Y-70765686D02*
X171834314Y-69400000D01*
X159374639Y-70010292D02*
X159374639Y-69640000D01*
X156734639Y-69400000D02*
X156614639Y-69400000D01*
X159134639Y-69400000D02*
X159014639Y-69400000D01*
X151365686Y-69400000D02*
X126000000Y-44034314D01*
X157934639Y-69400000D02*
X157814639Y-69400000D01*
X124800000Y-40950000D02*
X123700000Y-40950000D01*
X157574639Y-69640000D02*
X157574639Y-70010316D01*
X155414639Y-69400000D02*
X153802718Y-69400000D01*
X126000000Y-42150000D02*
X124800000Y-40950000D01*
X155774639Y-70010292D02*
X155774639Y-69640000D01*
X158774639Y-69640000D02*
X158774639Y-70010292D01*
X158174639Y-70010292D02*
X158174639Y-69640000D01*
X157334639Y-70250316D02*
X157214639Y-70250316D01*
X172800000Y-72500000D02*
X173200000Y-72100000D01*
X170203998Y-72500000D02*
X172800000Y-72500000D01*
X171834314Y-69400000D02*
X160214639Y-69400000D01*
X153802718Y-69400000D02*
X151365686Y-69400000D01*
X156374639Y-69640000D02*
X156374639Y-70010292D01*
X156134639Y-70250292D02*
X156014639Y-70250292D01*
X159734639Y-70250292D02*
X159614639Y-70250292D01*
X158534639Y-70250292D02*
X158414639Y-70250292D01*
X156974639Y-70010316D02*
X156974639Y-69640000D01*
X170179000Y-72475002D02*
X170203998Y-72500000D01*
X159974639Y-69640000D02*
X159974639Y-70010292D01*
X173200000Y-72100000D02*
X173200000Y-70765686D01*
X155534639Y-69400000D02*
X155414639Y-69400000D01*
X126000000Y-44034314D02*
X126000000Y-42150000D01*
X157574639Y-70010316D02*
G75*
G02*
X157334639Y-70250339I-240039J16D01*
G01*
X159374639Y-69640000D02*
G75*
G03*
X159134639Y-69399961I-240039J0D01*
G01*
X160214639Y-69400000D02*
G75*
G03*
X159974600Y-69640000I-39J-240000D01*
G01*
X158414639Y-70250292D02*
G75*
G02*
X158174608Y-70010292I-39J239992D01*
G01*
X158174639Y-69640000D02*
G75*
G03*
X157934639Y-69399961I-240039J0D01*
G01*
X159974639Y-70010292D02*
G75*
G02*
X159734639Y-70250339I-240039J-8D01*
G01*
X159614639Y-70250292D02*
G75*
G02*
X159374608Y-70010292I-39J239992D01*
G01*
X157814639Y-69400000D02*
G75*
G03*
X157574600Y-69640000I-39J-240000D01*
G01*
X158774639Y-70010292D02*
G75*
G02*
X158534639Y-70250339I-240039J-8D01*
G01*
X156614639Y-69400000D02*
G75*
G03*
X156374600Y-69640000I-39J-240000D01*
G01*
X155774639Y-69640000D02*
G75*
G03*
X155534639Y-69399961I-240039J0D01*
G01*
X156014639Y-70250292D02*
G75*
G02*
X155774608Y-70010292I-39J239992D01*
G01*
X156374639Y-70010292D02*
G75*
G02*
X156134639Y-70250339I-240039J-8D01*
G01*
X156974639Y-69640000D02*
G75*
G03*
X156734639Y-69399961I-240039J0D01*
G01*
X159014639Y-69400000D02*
G75*
G03*
X158774600Y-69640000I-39J-240000D01*
G01*
X157214639Y-70250316D02*
G75*
G02*
X156974584Y-70010316I-39J240016D01*
G01*
%TO.N,/I2C_SCL*%
X126400000Y-43868628D02*
X151531372Y-69000000D01*
X173600000Y-72265686D02*
X172765686Y-73100000D01*
X126400000Y-38000000D02*
X126400000Y-43868628D01*
X125540000Y-37140000D02*
X126400000Y-38000000D01*
X172765686Y-73100000D02*
X170204001Y-73100000D01*
X170204001Y-73100000D02*
X170179000Y-73125001D01*
X151531372Y-69000000D02*
X172000000Y-69000000D01*
X123700000Y-37140000D02*
X125540000Y-37140000D01*
X173600000Y-70600000D02*
X173600000Y-72265686D01*
X172000000Y-69000000D02*
X173600000Y-70600000D01*
%TO.N,/LED_DATA*%
X103400000Y-77000000D02*
X101925000Y-78475000D01*
X99423960Y-78475000D02*
X97698960Y-80200000D01*
X103499997Y-50320003D02*
X105250000Y-48570000D01*
X97698960Y-80200000D02*
X95100000Y-80200000D01*
X94500000Y-80800000D02*
X94500000Y-83200000D01*
X103399997Y-52099997D02*
X103399997Y-50320006D01*
X95100000Y-80200000D02*
X94500000Y-80800000D01*
X94500000Y-83200000D02*
X95100000Y-83800000D01*
X103400000Y-54500000D02*
X103400000Y-77000000D01*
X95100000Y-83800000D02*
X98650000Y-83800000D01*
X103400000Y-52100000D02*
X103399997Y-52099997D01*
X101925000Y-78475000D02*
X99423960Y-78475000D01*
X105250000Y-48570000D02*
X106200000Y-48570000D01*
%TO.N,Net-(U201-CHANNEL_1)*%
X180200000Y-66300000D02*
X181000000Y-66300000D01*
X183400000Y-63900000D02*
X183400000Y-63650000D01*
X181000000Y-66300000D02*
X181800000Y-67100000D01*
X181800000Y-67900000D02*
X183400000Y-67900000D01*
X181000000Y-66300000D02*
X183400000Y-63900000D01*
X181800000Y-67100000D02*
X181800000Y-67900000D01*
%TO.N,Net-(U201-CHANNEL_2)*%
X188400000Y-67900000D02*
X190000000Y-67900000D01*
X190800000Y-66300000D02*
X190000000Y-67100000D01*
X190800000Y-66300000D02*
X188400000Y-63900000D01*
X190000000Y-67100000D02*
X190000000Y-67900000D01*
X188400000Y-63900000D02*
X188400000Y-63650000D01*
X191600000Y-66300000D02*
X190800000Y-66300000D01*
%TO.N,Net-(U202-CHANNEL_1)*%
X220300000Y-67100000D02*
X219500000Y-66300000D01*
X221900000Y-63900000D02*
X221900000Y-63650000D01*
X218700000Y-66300000D02*
X219500000Y-66300000D01*
X221900000Y-67800000D02*
X220300000Y-67800000D01*
X219500000Y-66300000D02*
X221900000Y-63900000D01*
X220300000Y-67800000D02*
X220300000Y-67100000D01*
%TO.N,Net-(U202-CHANNEL_2)*%
X226900000Y-63900000D02*
X226900000Y-63650000D01*
X229300000Y-66300000D02*
X228500000Y-67100000D01*
X226900000Y-67800000D02*
X228500000Y-67800000D01*
X228500000Y-67100000D02*
X228500000Y-67800000D01*
X230100000Y-66300000D02*
X229300000Y-66300000D01*
X229300000Y-66300000D02*
X226900000Y-63900000D01*
D39*
%TO.N,Net-(F101-Pad1)*%
X164600000Y-35800000D02*
X166700000Y-35800000D01*
X169100000Y-33750000D02*
X169100000Y-35500000D01*
X164300000Y-33750000D02*
X164300000Y-35500000D01*
X168800000Y-35800000D02*
X166700000Y-35800000D01*
X164300000Y-35500000D02*
X164600000Y-35800000D01*
X169100000Y-35500000D02*
X168800000Y-35800000D01*
D41*
%TO.N,Net-(J103-CC1)*%
X172400000Y-31000000D02*
X169000000Y-31000000D01*
X173000000Y-32400000D02*
X173000000Y-31600000D01*
X173000000Y-31600000D02*
X172400000Y-31000000D01*
X169000000Y-31000000D02*
X167950000Y-32050000D01*
X167950000Y-32050000D02*
X167950000Y-33750000D01*
%TO.N,Net-(J103-CC2)*%
X164950000Y-31950000D02*
X164950000Y-33750000D01*
X161000000Y-31000000D02*
X164000000Y-31000000D01*
X160400000Y-31600000D02*
X161000000Y-31000000D01*
X164000000Y-31000000D02*
X164950000Y-31950000D01*
X160400000Y-32400000D02*
X160400000Y-31600000D01*
D39*
%TO.N,Net-(J103-SHIELD)*%
X172225000Y-28900000D02*
X173000000Y-29675000D01*
X171025000Y-28900000D02*
X172225000Y-28900000D01*
X162375000Y-28900000D02*
X171025000Y-28900000D01*
D41*
%TO.N,Net-(SW301-DOUT)*%
X108600000Y-84900000D02*
X109700000Y-83800000D01*
X109700000Y-83800000D02*
X117850000Y-83800000D01*
X100480000Y-84900000D02*
X108600000Y-84900000D01*
%TO.N,Net-(SW302-DOUT)*%
X128900000Y-83800000D02*
X137050000Y-83800000D01*
X119680000Y-84900000D02*
X127800000Y-84900000D01*
X127800000Y-84900000D02*
X128900000Y-83800000D01*
%TO.N,Net-(SW303-DOUT)*%
X138880000Y-84900000D02*
X147000000Y-84900000D01*
X147000000Y-84900000D02*
X148100000Y-83800000D01*
X148100000Y-83800000D02*
X156250000Y-83800000D01*
%TO.N,Net-(SW304-DOUT)*%
X158080000Y-84900000D02*
X163600000Y-84900000D01*
X169900000Y-83800000D02*
X175450000Y-83800000D01*
%TO.N,Net-(SW305-DOUT)*%
X186500000Y-83800000D02*
X194650000Y-83800000D01*
X185400000Y-84900000D02*
X186500000Y-83800000D01*
X177280000Y-84900000D02*
X185400000Y-84900000D01*
%TO.N,Net-(SW306-DOUT)*%
X204700000Y-84900000D02*
X205800000Y-83800000D01*
X196480000Y-84900000D02*
X204700000Y-84900000D01*
X205800000Y-83800000D02*
X213850000Y-83800000D01*
%TO.N,Net-(SW307-DOUT)*%
X224900000Y-83800000D02*
X233050000Y-83800000D01*
X223800000Y-84900000D02*
X224900000Y-83800000D01*
X215680000Y-84900000D02*
X223800000Y-84900000D01*
%TO.N,Net-(SW308-DOUT)*%
X95107827Y-103000000D02*
X98650000Y-103000000D01*
X95062431Y-103045396D02*
X95107827Y-103000000D01*
X241600000Y-89500000D02*
X237000000Y-84900000D01*
X240100000Y-103000000D02*
X241600000Y-101500000D01*
X237000000Y-84900000D02*
X234880000Y-84900000D01*
X241600000Y-101500000D02*
X241600000Y-89500000D01*
%TO.N,Net-(SW309-DOUT)*%
X108600000Y-104100000D02*
X109700000Y-103000000D01*
X109700000Y-103000000D02*
X117850000Y-103000000D01*
X100480000Y-104100000D02*
X108600000Y-104100000D01*
%TO.N,Net-(SW310-DOUT)*%
X127800000Y-104100000D02*
X128900000Y-103000000D01*
X128900000Y-103000000D02*
X137050000Y-103000000D01*
X119680000Y-104100000D02*
X127800000Y-104100000D01*
%TO.N,Net-(SW311-DOUT)*%
X147000000Y-104100000D02*
X148100000Y-103000000D01*
X148100000Y-103000000D02*
X156250000Y-103000000D01*
X138880000Y-104100000D02*
X147000000Y-104100000D01*
%TO.N,Net-(SW312-DOUT)*%
X167300000Y-103000000D02*
X175450000Y-103000000D01*
X166200000Y-104100000D02*
X167300000Y-103000000D01*
X158080000Y-104100000D02*
X166200000Y-104100000D01*
%TO.N,Net-(SW313-DOUT)*%
X185400000Y-104100000D02*
X186500000Y-103000000D01*
X177280000Y-104100000D02*
X185400000Y-104100000D01*
X186500000Y-103000000D02*
X194650000Y-103000000D01*
%TO.N,Net-(SW314-DOUT)*%
X205700000Y-103000000D02*
X213850000Y-103000000D01*
X196480000Y-104100000D02*
X204600000Y-104100000D01*
X204600000Y-104100000D02*
X205700000Y-103000000D01*
D40*
%TO.N,/HA_STATUS*%
X119400000Y-52360000D02*
X119400000Y-54100000D01*
X153775000Y-30100000D02*
X153800000Y-30125000D01*
%TO.N,/IO_INT*%
X153200000Y-71800000D02*
X163295999Y-71800000D01*
X124890000Y-43490000D02*
X153200000Y-71800000D01*
X163295999Y-71800000D02*
X163321000Y-71825001D01*
X123700000Y-43490000D02*
X124890000Y-43490000D01*
%TO.N,/Rotary Encoders/SW_RSW2*%
X104500000Y-50400000D02*
X105060000Y-49840000D01*
X133400000Y-53100000D02*
X125965686Y-53100000D01*
X105060000Y-49840000D02*
X106200000Y-49840000D01*
X104500000Y-52100000D02*
X104500000Y-50400000D01*
X125965686Y-53100000D02*
X123565686Y-55500000D01*
X105500000Y-55500000D02*
X104500000Y-54500000D01*
X222950000Y-53100000D02*
X226900000Y-49150000D01*
X123565686Y-55500000D02*
X105500000Y-55500000D01*
X161800000Y-53100000D02*
X222950000Y-53100000D01*
%TO.N,/Rotary Encoders/SW_RSW1*%
X160700000Y-52000000D02*
X185550000Y-52000000D01*
X110510000Y-53510000D02*
X110510000Y-52360000D01*
X185550000Y-52000000D02*
X188400000Y-49150000D01*
X112100000Y-55100000D02*
X110510000Y-53510000D01*
X123400000Y-55100000D02*
X112100000Y-55100000D01*
X132300000Y-52000000D02*
X126500000Y-52000000D01*
X126500000Y-52000000D02*
X123400000Y-55100000D01*
D41*
%TO.N,Net-(SW315-DOUT)*%
X224900000Y-103000000D02*
X233050000Y-103000000D01*
X215680000Y-104100000D02*
X223800000Y-104100000D01*
X223800000Y-104100000D02*
X224900000Y-103000000D01*
%TD*%
%TA.AperFunction,Conductor*%
%TO.N,GND*%
G36*
X163413867Y-33112618D02*
G01*
X163415005Y-33109873D01*
X163422513Y-33112983D01*
X163422515Y-33112984D01*
X163562525Y-33150500D01*
X163675500Y-33150500D01*
X163742539Y-33170185D01*
X163788294Y-33222989D01*
X163799500Y-33274500D01*
X163799500Y-34470747D01*
X163800000Y-34480915D01*
X163800000Y-37076000D01*
X163780315Y-37143039D01*
X163727511Y-37188794D01*
X163676000Y-37200000D01*
X161624000Y-37200000D01*
X161556961Y-37180315D01*
X161511206Y-37127511D01*
X161500000Y-37076000D01*
X161500000Y-35024000D01*
X161519685Y-34956961D01*
X161572489Y-34911206D01*
X161624000Y-34900000D01*
X163200000Y-34900000D01*
X163200000Y-33224000D01*
X163219685Y-33156961D01*
X163272489Y-33111206D01*
X163324000Y-33100000D01*
X163366801Y-33100000D01*
X163413867Y-33112618D01*
G37*
%TD.AperFunction*%
%TD*%
%TA.AperFunction,Conductor*%
%TO.N,+3.3V*%
G36*
X169743039Y-44419685D02*
G01*
X169788794Y-44472489D01*
X169800000Y-44524000D01*
X169800000Y-46100000D01*
X173176000Y-46100000D01*
X173243039Y-46119685D01*
X173288794Y-46172489D01*
X173300000Y-46224000D01*
X173300000Y-47876000D01*
X173280315Y-47943039D01*
X173227511Y-47988794D01*
X173176000Y-48000000D01*
X167424000Y-48000000D01*
X167356961Y-47980315D01*
X167311206Y-47927511D01*
X167300000Y-47876000D01*
X167300000Y-44524000D01*
X167319685Y-44456961D01*
X167372489Y-44411206D01*
X167424000Y-44400000D01*
X169676000Y-44400000D01*
X169743039Y-44419685D01*
G37*
%TD.AperFunction*%
%TD*%
%TA.AperFunction,Conductor*%
%TO.N,GND*%
G36*
X170143039Y-33119685D02*
G01*
X170188794Y-33172489D01*
X170200000Y-33224000D01*
X170200000Y-34900000D01*
X171776000Y-34900000D01*
X171843039Y-34919685D01*
X171888794Y-34972489D01*
X171900000Y-35024000D01*
X171900000Y-37076000D01*
X171880315Y-37143039D01*
X171827511Y-37188794D01*
X171776000Y-37200000D01*
X169724000Y-37200000D01*
X169656961Y-37180315D01*
X169611206Y-37127511D01*
X169600000Y-37076000D01*
X169600000Y-34480915D01*
X169600500Y-34470747D01*
X169600500Y-33262254D01*
X169620185Y-33195215D01*
X169672989Y-33149460D01*
X169692395Y-33142482D01*
X169802485Y-33112984D01*
X169802488Y-33112981D01*
X169809995Y-33109873D01*
X169811132Y-33112618D01*
X169858199Y-33100000D01*
X170076000Y-33100000D01*
X170143039Y-33119685D01*
G37*
%TD.AperFunction*%
%TD*%
%TA.AperFunction,Conductor*%
%TO.N,+5V*%
G36*
X169943039Y-39419685D02*
G01*
X169988794Y-39472489D01*
X170000000Y-39524000D01*
X170000000Y-43376000D01*
X169980315Y-43443039D01*
X169927511Y-43488794D01*
X169876000Y-43500000D01*
X167374500Y-43500000D01*
X167307461Y-43480315D01*
X167261706Y-43427511D01*
X167250500Y-43376000D01*
X167250500Y-42354239D01*
X167240573Y-42286108D01*
X167240573Y-42286107D01*
X167189198Y-42181017D01*
X167189196Y-42181015D01*
X167189196Y-42181014D01*
X167106485Y-42098303D01*
X167001391Y-42046926D01*
X166933261Y-42037000D01*
X166933260Y-42037000D01*
X166566740Y-42037000D01*
X166566739Y-42037000D01*
X166498608Y-42046926D01*
X166393514Y-42098303D01*
X166310803Y-42181014D01*
X166259426Y-42286108D01*
X166249500Y-42354239D01*
X166249500Y-43376000D01*
X166229815Y-43443039D01*
X166177011Y-43488794D01*
X166125500Y-43500000D01*
X163524000Y-43500000D01*
X163456961Y-43480315D01*
X163411206Y-43427511D01*
X163400000Y-43376000D01*
X163400000Y-39524000D01*
X163419685Y-39456961D01*
X163472489Y-39411206D01*
X163524000Y-39400000D01*
X169876000Y-39400000D01*
X169943039Y-39419685D01*
G37*
%TD.AperFunction*%
%TD*%
M02*
